<svg xmlns="http://www.w3.org/2000/svg" version="1.1" xmlns:xlink="http://www.w3.org/1999/xlink" xmlns:svgjs="http://svgjs.dev/svgjs" width="128" height="128" viewBox="0 0 128 128"><g transform="matrix(0.8046875,0,0,0.8046875,12.221578124999994,32.6152674271393)"><svg viewBox="0 0 96 59" data-background-color="#293040" preserveAspectRatio="xMidYMid meet" height="78" width="128" xmlns="http://www.w3.org/2000/svg" xmlns:xlink="http://www.w3.org/1999/xlink"><g id="tight-bounds" transform="matrix(1,0,0,1,0.25950000000000273,0.0018048780487873728)"><svg viewBox="0 0 95.481 58.99639024390244" height="58.99639024390244" width="95.481"><g><svg viewBox="0 0 95.481 58.99639024390244" height="58.99639024390244" width="95.481"><g><svg viewBox="0 0 95.481 58.99639024390244" height="58.99639024390244" width="95.481"><g id="textblocktransform"><svg viewBox="0 0 95.481 58.99639024390244" height="58.99639024390244" width="95.481" id="textblock"><g><svg viewBox="0 0 95.481 58.99639024390244" height="58.99639024390244" width="95.481"><g><svg viewBox="0 0 95.481 58.99639024390244" height="58.99639024390244" width="95.481"><g><svg xmlns="http://www.w3.org/2000/svg" xmlns:xlink="http://www.w3.org/1999/xlink" version="1.1" x="0" y="0" viewBox="0.8 19.6 98.4 60.800000000000004" enable-background="new 0 0 100 100" xml:space="preserve" height="58.99639024390244" width="95.481" class="icon-icon-0" data-fill-palette-color="accent" id="icon-0"><path d="M98.8 49.1C97.7 44.5 95.1 40.3 91.4 37.4 87.6 34.4 82.9 32.7 78.1 32.7H76V56.5L99.2 51zM79.9 51.6V36.7C86.5 37.4 92.1 41.9 94.4 48.1zM72.7 60.7C84 58 89.3 56.7 91.9 56.1 92.2 57.6 92.4 59.1 92.4 60.7 92.4 71.6 83.6 80.4 72.7 80.4 61.9 80.4 53 71.6 53 60.7S61.9 41 72.7 41zM66.1 19.6H12.2C8.5 19.6 5.5 22.6 5.5 26.3V60.2C5.5 61.1 5.2 61.9 4.7 62.6L1.2 66.8C0.9 67.1 0.8 67.5 0.8 67.9V69.8C0.8 72.3 2.8 74.3 5.3 74.3H54C51.2 70.4 49.5 65.7 49.5 60.5H12.2V26.3H66V38.4C68.1 37.8 70.3 37.4 72.7 37.4V26.3C72.8 22.6 69.8 19.6 66.1 19.6M31.9 67.4H46.4V67.9C46.4 69.2 45.4 70.2 44.1 70.2H34.2C32.9 70.2 31.9 69.2 31.9 67.9z" fill="#c9ad8b" data-fill-palette-color="accent"></path></svg></g></svg></g></svg></g></svg></g></svg></g><g></g></svg></g><defs></defs></svg><rect width="95.481" height="58.99639024390244" fill="none" stroke="none" visibility="hidden"></rect></g></svg></g></svg>