<svg xmlns="http://www.w3.org/2000/svg" version="1.1" xmlns:xlink="http://www.w3.org/1999/xlink" xmlns:svgjs="http://svgjs.dev/svgjs" width="2000" height="1500" viewBox="0 0 2000 1500"><rect width="2000" height="1500" fill="#293040"></rect><g transform="matrix(0.75,0,0,0.75,249.090909090909,284.93645365484304)"><svg viewBox="0 0 396 245" data-background-color="#293040" preserveAspectRatio="xMidYMid meet" height="1237" width="2000" xmlns="http://www.w3.org/2000/svg" xmlns:xlink="http://www.w3.org/1999/xlink"><g id="tight-bounds" transform="matrix(1,0,0,1,0.2400000000000091,0.3140186671491705)"><svg viewBox="0 0 395.52 244.37211029586516" height="244.37211029586516" width="395.52"><g><svg viewBox="0 0 395.52 244.37211029586516" height="244.37211029586516" width="395.52"><g transform="matrix(1,0,0,1,0,194.5096002025752)"><svg viewBox="0 0 395.52 49.86251009328996" height="49.86251009328996" width="395.52"><g id="textblocktransform"><svg viewBox="0 0 395.52 49.86251009328996" height="49.86251009328996" width="395.52" id="textblock"><g><svg viewBox="0 0 395.52 23.902537632037358" height="23.902537632037358" width="395.52"><g transform="matrix(1,0,0,1,0,0)"><svg width="395.52" viewBox="0.66 -32.4 684.0784743484852 42.04" height="23.902537632037358" data-palette-color="#d5b263"><g transform="matrix(1,0,0,1,0,0)"><g><svg width="11.187624348485123" viewBox="3.16 -36.86 82.86 37.36" height="5.043660087682172" data-palette-color="#d5b263" id="scriptelement" x="671.2338121742425" y="-27.010980043841084"><path d="M3.16-36.36L10.85-36.36 10.85 0 3.16 0 3.16-36.36ZM39.95-36.36L47.6-36.36 47.6 0 40.96 0 25.14-22.89 24.87-22.89 24.87 0 17.19 0 17.19-36.36 23.93-36.36 39.63-13.49 39.95-13.49 39.95-36.36ZM86.02-23.63L86.02-23.63 78.24-23.63Q78.03-25.14 77.37-26.32 76.72-27.5 75.69-28.34 74.66-29.17 73.32-29.62 71.98-30.06 70.41-30.06L70.41-30.06Q67.59-30.06 65.5-28.67 63.4-27.27 62.25-24.62 61.09-21.96 61.09-18.18L61.09-18.18Q61.09-14.29 62.26-11.65 63.42-9 65.51-7.65 67.61-6.3 70.36-6.3L70.36-6.3Q71.91-6.3 73.23-6.71 74.55-7.12 75.58-7.91 76.61-8.7 77.29-9.84 77.98-10.97 78.24-12.43L78.24-12.43 86.02-12.39Q85.72-9.89 84.52-7.57 83.32-5.26 81.31-3.44 79.29-1.62 76.51-0.56 73.73 0.5 70.24 0.5L70.24 0.5Q65.37 0.5 61.55-1.7 57.72-3.91 55.51-8.08 53.3-12.25 53.3-18.18L53.3-18.18Q53.3-24.13 55.53-28.3 57.77-32.48 61.61-34.67 65.44-36.86 70.24-36.86L70.24-36.86Q73.4-36.86 76.1-35.97 78.81-35.09 80.91-33.39 83-31.69 84.33-29.24 85.65-26.79 86.02-23.63Z" opacity="1" transform="matrix(1,0,0,1,0,0)" fill="#d5b263" class="undefined-123" data-fill-palette-color="primary" id="tk-123"></path></svg></g></g><path d="M668.917-24.489C668.917-28.858 672.459-32.4 676.828-32.4 681.197-32.4 684.738-28.858 684.738-24.489 684.738-20.12 681.197-16.578 676.828-16.578 672.459-16.578 668.917-20.12 668.917-24.489ZM676.828-16.978C680.976-16.978 684.338-20.341 684.338-24.489 684.338-28.637 680.976-32 676.828-32 672.679-32 669.317-28.637 669.317-24.489 669.317-20.341 672.679-16.978 676.828-16.978Z" fill="#d5b263" id="scriptcircle" data-fill-palette-color="primary"></path><g class="wordmark-text-0" data-fill-palette-color="primary" id="text-0"><path d="M21.95-8.74L21.95-8.74Q21.95-6.54 21.2-4.82 20.46-3.1 19.18-1.9 17.9-0.71 16.13-0.07 14.36 0.56 12.35 0.56L12.35 0.56Q10.11 0.56 8.3-0.24 6.49-1.05 5.2-2.91L5.2-2.91 5.2 0 0.66 0 0.66-10.4 5.2-10.4Q5.2-8.84 5.75-7.64 6.3-6.45 7.2-5.63 8.11-4.81 9.3-4.38 10.5-3.96 11.84-3.96L11.84-3.96Q14.11-3.96 15.5-5 16.89-6.05 16.89-8.35L16.89-8.35Q16.89-9.55 16.47-10.4 16.04-11.25 15.25-11.93 14.45-12.6 13.31-13.1 12.16-13.6 10.69-14.16L10.69-14.16Q8.96-14.75 7.23-15.48 5.49-16.21 4.13-17.29 2.76-18.36 1.9-19.93 1.05-21.51 1.05-23.9L1.05-23.9Q1.05-26 1.82-27.58 2.59-29.15 3.87-30.22 5.15-31.3 6.85-31.85 8.54-32.4 10.45-32.4L10.45-32.4Q12.65-32.4 14.22-31.47 15.8-30.54 16.65-29L16.65-29 16.65-31.86 21.19-31.86 21.19-21.95 16.65-21.95Q16.65-24.76 15.17-26.33 13.7-27.91 11.21-27.91L11.21-27.91Q9.01-27.91 7.56-26.88 6.1-25.85 6.1-24L6.1-24Q6.1-23.05 6.48-22.38 6.86-21.7 7.58-21.15 8.3-20.61 9.4-20.13 10.5-19.65 11.94-19.09L11.94-19.09Q13.75-18.46 15.53-17.65 17.31-16.85 18.73-15.67 20.14-14.5 21.04-12.83 21.95-11.16 21.95-8.74ZM45.8-22.75L50.75-22.75 47.34 0 41.09 0 38.69-13.7 36.25 0 30 0 26.58-22.75 31.54-22.75 33.54-7.54 35.98-22.75 41.33-22.75 43.8-7.54 45.8-22.75ZM69.04-31.86L69.04-25.71 62.89-25.71 62.89-31.86 69.04-31.86ZM73.68-4.54L73.68 0 58.39 0 58.39-4.54 63.42-4.54 63.42-18.19 58.39-18.19 58.39-22.75 68.48-22.75 68.48-4.54 73.68-4.54ZM100.43-8.25L104.88-7.25Q104.48-3.66 102.06-1.55 99.63 0.56 95.99 0.56L95.99 0.56Q93.99 0.56 92.33-0.1 90.67-0.76 89.49-1.93 88.32-3.1 87.68-4.75 87.03-6.4 87.03-8.35L87.03-8.35 87.03-18.19 81.88-18.19 81.88-22.75 87.03-22.75 87.03-31.86 92.08-31.86 92.08-22.75 101.63-22.75 101.63-18.19 92.08-18.19 92.08-8.35Q92.08-6.15 93.16-5.08 94.23-4 95.99-4L95.99-4Q98.14-4 99.19-5.25 100.24-6.49 100.43-8.25L100.43-8.25ZM130.73-9.06L130.73 0 110.37 0 110.37-4.49 123.33-18.19 114.81-18.19 114.81-13.6 110.37-13.6 110.37-22.75 130.26-22.75 130.26-18.19 117.28-4.54 126.26-4.54 126.26-9.06 130.73-9.06ZM160.17-9.45L141.1-9.45Q141.47-7.1 143.33-5.55 145.2-4 148.35-4L148.35-4Q150.82-4 152.64-4.77 154.46-5.54 155.77-6.81L155.77-6.81 158.36-3.25Q156.16-1.05 153.71-0.24 151.26 0.56 148.35 0.56L148.35 0.56Q145.72 0.56 143.44-0.32 141.17-1.2 139.51-2.77 137.85-4.35 136.91-6.52 135.97-8.69 135.97-11.35L135.97-11.35Q135.97-13.94 136.84-16.13 137.71-18.31 139.28-19.91 140.86-21.51 143.05-22.4 145.25-23.29 147.91-23.29L147.91-23.29Q150.67-23.29 152.92-22.35 155.16-21.41 156.76-19.63 158.36-17.85 159.26-15.27 160.17-12.7 160.17-9.45L160.17-9.45ZM141.32-13.89L154.46-13.89Q154.06-16.09 152.18-17.42 150.3-18.75 147.91-18.75L147.91-18.75Q145.52-18.75 143.62-17.42 141.71-16.09 141.32-13.89L141.32-13.89ZM187.85-22.29L185.95-17.36Q185.04-17.8 184.1-18.03 183.16-18.26 181.94-18.26L181.94-18.26Q180.26-18.26 178.78-17.76 177.3-17.26 176.23-16.26 175.16-15.26 174.56-13.76 173.96-12.26 173.96-10.21L173.96-10.21 173.96-4.54 179.06-4.54 179.06 0 163.75 0 163.75-4.54 168.91-4.54 168.91-18.19 163.75-18.19 163.75-22.75 173.96-22.75 173.96-17.04Q175.2-20.46 177.63-21.88 180.06-23.29 183.41-23.29L183.41-23.29Q184.46-23.29 185.61-23.07 186.75-22.85 187.85-22.29L187.85-22.29ZM210.19-4.54L210.19 0 194.9 0 194.9-4.54 199.88-4.54 199.88-27.29 194.9-27.29 194.9-31.86 204.94-31.86 204.94-4.54 210.19-4.54ZM218.24-6.54L218.24-6.54Q218.24-8.54 219.32-10.05 220.39-11.55 222.14-12.55 223.88-13.55 226.14-14.05 228.4-14.55 230.74-14.55L230.74-14.55Q232.04-14.55 232.96-14.5 233.89-14.45 234.84-14.36L234.84-14.36 234.84-15.26Q234.84-17.04 233.46-17.92 232.08-18.8 229.84-18.8L229.84-18.8Q227.79-18.8 225.66-18.23 223.54-17.65 221.64-16.55L221.64-16.55 219.58-20.51Q221.83-21.8 224.41-22.55 226.98-23.29 229.84-23.29L229.84-23.29Q231.69-23.29 233.49-22.88 235.28-22.46 236.71-21.51 238.14-20.56 238.99-19.03 239.85-17.5 239.85-15.26L239.85-15.26 239.85 0 234.84 0 234.84-3.34Q233.65-1.49 231.32-0.46 228.98 0.56 226.3 0.56L226.3 0.56Q224.64 0.56 223.16 0.11 221.68-0.34 220.61-1.25 219.54-2.15 218.89-3.48 218.24-4.81 218.24-6.54ZM227.59-3.96L227.59-3.96Q229.08-3.96 230.39-4.33 231.69-4.71 232.69-5.38 233.7-6.05 234.27-7.01 234.84-7.96 234.84-9.11L234.84-9.11 234.84-9.96Q233.65-10.16 232.6-10.18 231.55-10.21 230.74-10.21L230.74-10.21Q227.03-10.21 225.14-9.23 223.25-8.25 223.25-6.81L223.25-6.81Q223.25-3.96 227.59-3.96ZM267.19-14.04L267.19 0 262.14 0 262.14-14.04Q262.14-16.7 261.13-17.72 260.13-18.75 258.23-18.75L258.23-18.75Q255.42-18.75 253.65-16.48 251.88-14.21 251.88-10.21L251.88-10.21 251.88 0 246.83 0 246.83-22.75 251.88-22.75 251.88-17.04Q252.64-20 254.69-21.64 256.74-23.29 259.74-23.29L259.74-23.29Q263.23-23.29 265.21-21.02 267.19-18.75 267.19-14.04L267.19-14.04ZM294.48-31.86L294.48 0 289.43 0 289.43-2.1Q287.96-0.81 286.47-0.12 284.98 0.56 283.08 0.56L283.08 0.56Q280.88 0.56 279-0.32 277.12-1.2 275.77-2.77 274.41-4.35 273.64-6.54 272.88-8.74 272.88-11.35L272.88-11.35Q272.88-13.94 273.64-16.15 274.41-18.36 275.77-19.93 277.12-21.51 279-22.4 280.88-23.29 283.08-23.29L283.08-23.29Q284.98-23.29 286.47-22.64 287.96-22 289.43-20.7L289.43-20.7 289.43-27.29 285.03-27.29 285.03-31.86 294.48-31.86ZM289.43-6.05L289.43-16.7Q288.52-17.7 287.1-18.23 285.67-18.75 284.37-18.75L284.37-18.75Q281.52-18.75 279.72-16.7 277.93-14.65 277.93-11.35L277.93-11.35Q277.93-8.06 279.72-6.03 281.52-4 284.37-4L284.37-4Q285.67-4 287.1-4.53 288.52-5.05 289.43-6.05L289.43-6.05Z" fill="#d5b263" data-fill-palette-color="primary"></path><path d="M345.58-15.94L345.58-15.94Q345.58-12.74 344.9-9.85 344.23-6.96 342.76-4.77 341.28-2.59 338.95-1.29 336.62 0 333.32 0L333.32 0 322.97 0 322.97-31.86 333.32-31.86Q336.57-31.86 338.9-30.55 341.23-29.25 342.71-27.08 344.18-24.9 344.88-22.02 345.58-19.14 345.58-15.94ZM340.52-15.94L340.52-15.94Q340.52-21.46 338.64-24.38 336.76-27.29 333.32-27.29L333.32-27.29 328.02-27.29 328.02-4.54 333.32-4.54Q336.76-4.54 338.64-7.52 340.52-10.5 340.52-15.94ZM348.97-6.54L348.97-6.54Q348.97-8.54 350.04-10.05 351.12-11.55 352.86-12.55 354.61-13.55 356.87-14.05 359.12-14.55 361.47-14.55L361.47-14.55Q362.76-14.55 363.69-14.5 364.62-14.45 365.57-14.36L365.57-14.36 365.57-15.26Q365.57-17.04 364.19-17.92 362.81-18.8 360.56-18.8L360.56-18.8Q358.51-18.8 356.39-18.23 354.27-17.65 352.36-16.55L352.36-16.55 350.31-20.51Q352.56-21.8 355.13-22.55 357.71-23.29 360.56-23.29L360.56-23.29Q362.42-23.29 364.21-22.88 366.01-22.46 367.44-21.51 368.86-20.56 369.72-19.03 370.57-17.5 370.57-15.26L370.57-15.26 370.57 0 365.57 0 365.57-3.34Q364.37-1.49 362.04-0.46 359.71 0.56 357.02 0.56L357.02 0.56Q355.36 0.56 353.89 0.11 352.41-0.34 351.34-1.25 350.26-2.15 349.61-3.48 348.97-4.81 348.97-6.54ZM358.32-3.96L358.32-3.96Q359.81-3.96 361.11-4.33 362.42-4.71 363.42-5.38 364.42-6.05 365-7.01 365.57-7.96 365.57-9.11L365.57-9.11 365.57-9.96Q364.37-10.16 363.32-10.18 362.27-10.21 361.47-10.21L361.47-10.21Q357.76-10.21 355.86-9.23 353.97-8.25 353.97-6.81L353.97-6.81Q353.97-3.96 358.32-3.96ZM394.91-8.25L399.36-7.25Q398.96-3.66 396.54-1.55 394.11 0.56 390.47 0.56L390.47 0.56Q388.47 0.56 386.81-0.1 385.15-0.76 383.97-1.93 382.8-3.1 382.16-4.75 381.51-6.4 381.51-8.35L381.51-8.35 381.51-18.19 376.36-18.19 376.36-22.75 381.51-22.75 381.51-31.86 386.56-31.86 386.56-22.75 396.11-22.75 396.11-18.19 386.56-18.19 386.56-8.35Q386.56-6.15 387.64-5.08 388.71-4 390.47-4L390.47-4Q392.62-4 393.67-5.25 394.72-6.49 394.91-8.25L394.91-8.25ZM403.55-6.54L403.55-6.54Q403.55-8.54 404.63-10.05 405.7-11.55 407.45-12.55 409.19-13.55 411.45-14.05 413.71-14.55 416.05-14.55L416.05-14.55Q417.35-14.55 418.27-14.5 419.2-14.45 420.15-14.36L420.15-14.36 420.15-15.26Q420.15-17.04 418.77-17.92 417.39-18.8 415.15-18.8L415.15-18.8Q413.1-18.8 410.97-18.23 408.85-17.65 406.95-16.55L406.95-16.55 404.89-20.51Q407.14-21.8 409.72-22.55 412.29-23.29 415.15-23.29L415.15-23.29Q417-23.29 418.8-22.88 420.59-22.46 422.02-21.51 423.45-20.56 424.3-19.03 425.16-17.5 425.16-15.26L425.16-15.26 425.16 0 420.15 0 420.15-3.34Q418.96-1.49 416.63-0.46 414.29 0.56 411.61 0.56L411.61 0.56Q409.95 0.56 408.47 0.11 406.99-0.34 405.92-1.25 404.85-2.15 404.2-3.48 403.55-4.81 403.55-6.54ZM412.9-3.96L412.9-3.96Q414.39-3.96 415.7-4.33 417-4.71 418.01-5.38 419.01-6.05 419.58-7.01 420.15-7.96 420.15-9.11L420.15-9.11 420.15-9.96Q418.96-10.16 417.91-10.18 416.86-10.21 416.05-10.21L416.05-10.21Q412.34-10.21 410.45-9.23 408.56-8.25 408.56-6.81L408.56-6.81Q408.56-3.96 412.9-3.96Z" fill="#c9ad8b" data-fill-palette-color="accent"></path><path d="M471.54-4.54L471.54 0 456.26 0 456.26-4.54 461.29-4.54 461.29-27.29 456.26-27.29 456.26-31.86 471.54-31.86 471.54-27.29 466.34-27.29 466.34-4.54 471.54-4.54ZM501.3-14.04L501.3 0 496.25 0 496.25-14.04Q496.25-16.7 495.25-17.72 494.25-18.75 492.34-18.75L492.34-18.75Q489.53-18.75 487.76-16.48 485.99-14.21 485.99-10.21L485.99-10.21 485.99 0 480.94 0 480.94-22.75 485.99-22.75 485.99-17.04Q486.75-20 488.8-21.64 490.85-23.29 493.86-23.29L493.86-23.29Q497.35-23.29 499.32-21.02 501.3-18.75 501.3-14.04L501.3-14.04ZM529.18-6.81L529.18-6.81Q529.18-4.59 528.18-3.2 527.18-1.81 525.6-0.95 524.03-0.1 522.09 0.23 520.15 0.56 518.29 0.56L518.29 0.56Q515.19 0.56 512.12-0.34 509.04-1.25 506.79-2.71L506.79-2.71 508.89-6.86Q511.58-5.3 513.81-4.65 516.05-4 518.29-4L518.29-4Q521.34-4 522.74-4.65 524.13-5.3 524.13-6.45L524.13-6.45Q524.13-7.01 523.74-7.37 523.35-7.74 522.44-8.04 521.54-8.35 520.06-8.65 518.59-8.96 516.39-9.3L516.39-9.3Q514.63-9.59 513.06-10.02 511.48-10.45 510.28-11.23 509.09-12.01 508.37-13.21 507.65-14.4 507.65-16.21L507.65-16.21Q507.65-18.04 508.59-19.4 509.53-20.75 511.05-21.63 512.58-22.51 514.48-22.9 516.39-23.29 518.29-23.29L518.29-23.29Q520.98-23.29 523.5-22.6 526.03-21.9 527.94-20.61L527.94-20.61 525.93-16.7Q524.03-17.9 522.24-18.32 520.44-18.75 518.29-18.75L518.29-18.75Q517.39-18.75 516.41-18.65 515.44-18.55 514.61-18.27 513.78-17.99 513.23-17.52 512.68-17.04 512.68-16.36L512.68-16.36Q512.68-15.45 514.28-14.88 515.88-14.31 519.73-13.75L519.73-13.75Q521.83-13.45 523.57-13 525.3-12.55 526.54-11.78 527.79-11.01 528.49-9.8 529.18-8.59 529.18-6.81ZM548.78-31.86L548.78-25.71 542.63-25.71 542.63-31.86 548.78-31.86ZM553.42-4.54L553.42 0 538.14 0 538.14-4.54 543.17-4.54 543.17-18.19 538.14-18.19 538.14-22.75 548.22-22.75 548.22-4.54 553.42-4.54ZM583.18-22.75L583.18-0.24Q583.18 2.1 582.37 3.93 581.57 5.76 580.12 7.03 578.66 8.3 576.7 8.97 574.73 9.64 572.32 9.64L572.32 9.64Q566.38 9.64 562.18 6.05L562.18 6.05 564.58 2.15Q568.07 5.15 572.32 5.15L572.32 5.15Q574.93 5.15 576.53 3.87 578.13 2.59 578.13-0.15L578.13-0.15 578.13-2.59Q576.56-1.25 575.12-0.6 573.68 0.05 571.78 0.05L571.78 0.05Q569.58 0.05 567.7-0.88 565.82-1.81 564.47-3.41 563.11-5 562.34-7.13 561.57-9.25 561.57-11.65L561.57-11.65Q561.57-14.04 562.34-16.17 563.11-18.31 564.47-19.89 565.82-21.46 567.7-22.38 569.58-23.29 571.78-23.29L571.78-23.29Q573.68-23.29 575.17-22.64 576.66-22 578.13-20.7L578.13-20.7 578.13-22.75 583.18-22.75ZM578.13-6.59L578.13-16.7Q577.22-17.7 575.79-18.23 574.37-18.75 573.02-18.75L573.02-18.75Q570.17-18.75 568.4-16.75 566.63-14.75 566.63-11.65L566.63-11.65Q566.63-10.11 567.1-8.8 567.58-7.5 568.42-6.54 569.26-5.59 570.45-5.04 571.63-4.49 573.02-4.49L573.02-4.49Q574.37-4.49 575.79-5.04 577.22-5.59 578.13-6.59L578.13-6.59ZM610.47-14.04L610.47 0 605.42 0 605.42-14.04Q605.42-16.7 604.42-17.72 603.42-18.75 601.51-18.75L601.51-18.75Q598.7-18.75 596.93-16.48 595.16-14.21 595.16-10.21L595.16-10.21 595.16 0 590.11 0 590.11-31.86 595.16-31.86 595.16-17.04Q595.92-20 597.97-21.64 600.02-23.29 603.03-23.29L603.03-23.29Q606.52-23.29 608.49-21.02 610.47-18.75 610.47-14.04L610.47-14.04ZM634.76-8.25L639.21-7.25Q638.81-3.66 636.39-1.55 633.96 0.56 630.32 0.56L630.32 0.56Q628.32 0.56 626.66-0.1 625-0.76 623.82-1.93 622.65-3.1 622.01-4.75 621.36-6.4 621.36-8.35L621.36-8.35 621.36-18.19 616.21-18.19 616.21-22.75 621.36-22.75 621.36-31.86 626.41-31.86 626.41-22.75 635.96-22.75 635.96-18.19 626.41-18.19 626.41-8.35Q626.41-6.15 627.49-5.08 628.56-4 630.32-4L630.32-4Q632.47-4 633.52-5.25 634.57-6.49 634.76-8.25L634.76-8.25ZM665.64-6.81L665.64-6.81Q665.64-4.59 664.64-3.2 663.64-1.81 662.07-0.95 660.49-0.1 658.55 0.23 656.61 0.56 654.75 0.56L654.75 0.56Q651.65 0.56 648.58-0.34 645.5-1.25 643.26-2.71L643.26-2.71 645.35-6.86Q648.04-5.3 650.27-4.65 652.51-4 654.75-4L654.75-4Q657.81-4 659.2-4.65 660.59-5.3 660.59-6.45L660.59-6.45Q660.59-7.01 660.2-7.37 659.81-7.74 658.9-8.04 658-8.35 656.52-8.65 655.05-8.96 652.85-9.3L652.85-9.3Q651.09-9.59 649.52-10.02 647.94-10.45 646.75-11.23 645.55-12.01 644.83-13.21 644.11-14.4 644.11-16.21L644.11-16.21Q644.11-18.04 645.05-19.4 645.99-20.75 647.52-21.63 649.04-22.51 650.95-22.9 652.85-23.29 654.75-23.29L654.75-23.29Q657.44-23.29 659.97-22.6 662.49-21.9 664.4-20.61L664.4-20.61 662.4-16.7Q660.49-17.9 658.7-18.32 656.9-18.75 654.75-18.75L654.75-18.75Q653.85-18.75 652.87-18.65 651.9-18.55 651.07-18.27 650.24-17.99 649.69-17.52 649.14-17.04 649.14-16.36L649.14-16.36Q649.14-15.45 650.74-14.88 652.34-14.31 656.19-13.75L656.19-13.75Q658.29-13.45 660.03-13 661.76-12.55 663.01-11.78 664.25-11.01 664.95-9.8 665.64-8.59 665.64-6.81Z" fill="#d5b263" data-fill-palette-color="primary"></path></g></svg></g></svg></g><g transform="matrix(1,0,0,1,30.350918020175612,29.545353106058208)"><svg viewBox="0 0 310.46647592188845 20.317156987231755" height="20.317156987231755" width="310.46647592188845"><g transform="matrix(1,0,0,1,0,0)"><svg width="310.46647592188845" viewBox="4 -37.5 787.13 50" height="20.317156987231755" data-palette-color="#d5b263"><g class="slogan-text-1" data-fill-palette-color="secondary" id="text-1"><path d="M22.2-35L21.95-32 7.4-32 7.4-18.85 20.9-18.85 20.65-15.85 7.4-15.85 7.4-3 23.2-3 22.95 0 4 0 4-35 22.2-35ZM37.5-22.25L37.5-22.25Q34.7-22.1 31.45-20.4L31.45-20.4 31.45 0 28.2 0 28.2-25 31.45-25.25 31.45-22.45Q34.8-25 37.95-25.15L37.95-25.15Q43.25-25.15 45.25-22.5L45.25-22.5Q49.05-25 52.6-25.15L52.6-25.15Q55.65-25.15 57.3-24.4 58.95-23.65 60.02-22.28 61.1-20.9 61.1-18.4L61.1-18.4 61.1 0 57.85 0 57.85-17.55Q57.85-19.4 57-20.4L57-20.4Q55.45-22.25 52.6-22.25L52.6-22.25Q49.6-22.25 46.2-20.45L46.2-20.45Q46.45-19.45 46.45-18.4L46.45-18.4 46.45 0 43.2 0 43.2-17.55Q43.2-19.4 42.4-20.4L42.4-20.4Q40.8-22.25 37.5-22.25ZM84.4-3.5Q82.75-1.85 80.72-1.03 78.7-0.2 77.25-0.1 75.8 0 74.4 0 73 0 71.35-0.25L71.35-0.25 71.35 12.25 68.1 12.5 68.1-23.7Q69.2-24.05 71.47-24.75 73.75-25.45 76.32-25.45 78.9-25.45 80.77-25.03 82.65-24.6 84.25-23.4L84.25-23.4Q88-20.5 88-13.8 88-7.1 84.4-3.5L84.4-3.5ZM71.35-21.7L71.35-2.8Q72.85-2.45 74.55-2.45L74.55-2.45Q79.45-2.45 82.1-5.35 84.75-8.25 84.75-13.5 84.75-18.75 82.05-21L82.05-21Q80.15-22.55 77.17-22.55 74.2-22.55 71.35-21.7L71.35-21.7ZM93.89-6.4L93.89-6.4Q92.99-8.8 92.99-12L92.99-12Q92.99-18.15 96.44-21.68 99.89-25.2 105.09-25.2L105.09-25.2Q113.24-25.2 115.79-18.6L115.79-18.6Q116.74-16.2 116.74-13L116.74-13Q116.74-6.85 113.29-3.33 109.84 0.2 104.64 0.2L104.64 0.2Q96.49 0.2 93.89-6.4ZM96.24-12.35Q96.24-7.75 98.62-5.23 100.99-2.7 104.74-2.7 108.49-2.7 110.99-5.38 113.49-8.05 113.49-12.65 113.49-17.25 111.14-19.78 108.79-22.3 105.02-22.3 101.24-22.3 98.74-19.63 96.24-16.95 96.24-12.35ZM145.09 0L139.19-20.1 132.49 0 129.49 0 121.24-25 124.89-25.25 131.24-4.1 137.74-25 140.89-25.25 146.49-4.05 153.84-25 157.69-25.25 148.09 0 145.09 0ZM165.69-12.3L165.69-11.5Q165.69-2.7 174.09-2.7L174.09-2.7Q177.64-2.7 180.59-3.65L180.59-3.65Q181.34-3.9 181.64-4.05L181.64-4.05 182.39-1.4Q180.64-0.35 176.04 0.1L176.04 0.1Q174.74 0.2 173.29 0.2L173.29 0.2Q169.09 0.2 166.29-1.9L166.29-1.9Q162.44-4.75 162.44-11.4 162.44-18.05 165.91-21.63 169.39-25.2 174.34-25.2 179.29-25.2 181.79-22L181.79-22Q183.69-19.45 183.69-15.25L183.69-15.25Q183.69-14.25 183.59-13.15L183.59-13.15 165.74-13.15Q165.69-12.75 165.69-12.3L165.69-12.3ZM174.54-22.1L174.54-22.1Q171.44-22.1 169.24-20.23 167.04-18.35 166.19-15.4L166.19-15.4 180.74-15.4Q180.49-20.95 176.44-21.85L176.44-21.85Q175.54-22.1 174.54-22.1ZM202.84-24.5L201.54-21.5Q200.74-21.95 199.84-21.95 198.94-21.95 198.84-21.9L198.84-21.9Q196.94-21.9 195.01-20.53 193.09-19.15 191.74-17.45L191.74-17.45 191.74 0 188.49 0 188.49-25 191.74-25.25 191.74-19.65Q193.59-22 194.89-22.95L194.89-22.95Q197.29-24.75 199.49-24.85L199.49-24.85Q199.79-24.9 200.59-24.9 201.39-24.9 202.84-24.5L202.84-24.5ZM206.88-25L210.13-25.25 210.13 0 206.88 0 206.88-25ZM208.38-31.7Q207.38-31.7 206.86-32.35 206.33-33 206.33-34 206.33-35 206.91-35.63 207.48-36.25 208.48-36.25 209.48-36.25 210.11-35.63 210.73-35 210.73-33.9 210.73-32.8 210.06-32.25 209.38-31.7 208.38-31.7ZM219.98-25.25L219.98-22.25Q223.73-25 227.08-25.15L227.08-25.15Q230.13-25.15 231.78-24.4 233.43-23.65 234.51-22.28 235.58-20.9 235.58-18.4L235.58-18.4 235.58 0 232.33 0 232.33-17.55Q232.33-19.4 231.53-20.4L231.53-20.4Q229.93-22.25 226.63-22.25L226.63-22.25Q223.48-22.1 219.98-20.2L219.98-20.2 219.98 0 216.73 0 216.73-25 219.98-25.25ZM246.18-9.65L246.18-9.65Q242.48-11.5 242.48-16.6L242.48-16.6Q242.48-20.8 245.38-23 248.28-25.2 252.78-25.2L252.78-25.2Q253.98-25.2 255.73-24.95L255.73-24.95 265.13-25.2 265.03-23.3 259.58-23.3Q262.33-21.25 262.33-17.13 262.33-13 259.58-10.78 256.83-8.55 252.48-8.55L252.48-8.55Q249.68-8.55 247.83-9.05L247.83-9.05Q246.88-8.15 246.88-6.95L246.88-6.95Q246.88-5.25 248.75-4.5 250.63-3.75 253.18-3.4L253.18-3.4Q258.83-2.65 261.33-1.3L261.33-1.3Q264.93 0.7 264.93 4.85 264.93 9 260.98 11L260.98 11Q257.98 12.5 253.73 12.5 249.48 12.5 247.18 11.85L247.18 11.85Q241.13 10.1 241.13 5.35 241.13 0.6 246.48-2.7L246.48-2.7Q244.38-4.25 244.38-6.3 244.38-8.35 246.18-9.65ZM261.68 4.8L261.68 4.8Q261.68 1.55 257.38 0.3L257.38 0.3Q256.18-0.05 253.08-0.55 249.98-1.05 248.23-1.75L248.23-1.75Q244.38 1.45 244.38 4.45L244.38 4.45Q244.38 5.75 244.78 6.6 245.18 7.45 246.18 8.1L246.18 8.1Q248.38 9.6 252.88 9.6L252.88 9.6Q258.78 9.6 260.88 7.1L260.88 7.1Q261.68 6.15 261.68 4.8ZM258.93-17.25L258.93-17.25Q258.93-22.55 252.63-22.55L252.63-22.55Q249.63-22.55 247.68-21.18 245.73-19.8 245.73-16.98 245.73-14.15 247.13-12.68 248.53-11.2 251.85-11.2 255.18-11.2 257.05-12.8 258.93-14.4 258.93-17.25Z" fill="#d5b263" data-fill-palette-color="primary"></path><path d="M292.98-2.4L292.98 0 283.58 0 283.58-2.4 286.58-2.75 286.58-32.2 283.83-32.55 283.83-35 292.73-35 292.73-32.55 289.98-32.2 289.98-2.75 292.98-2.4ZM303.73-25.25L303.73-22.25Q307.48-25 310.83-25.15L310.83-25.15Q313.88-25.15 315.53-24.4 317.18-23.65 318.25-22.28 319.33-20.9 319.33-18.4L319.33-18.4 319.33 0 316.08 0 316.08-17.55Q316.08-19.4 315.28-20.4L315.28-20.4Q313.68-22.25 310.38-22.25L310.38-22.25Q307.23-22.1 303.73-20.2L303.73-20.2 303.73 0 300.48 0 300.48-25 303.73-25.25ZM329.07-25.25L329.07-22.25Q332.82-25 336.17-25.15L336.17-25.15Q339.22-25.15 340.87-24.4 342.52-23.65 343.6-22.28 344.67-20.9 344.67-18.4L344.67-18.4 344.67 0 341.42 0 341.42-17.55Q341.42-19.4 340.62-20.4L340.62-20.4Q339.02-22.25 335.72-22.25L335.72-22.25Q332.57-22.1 329.07-20.2L329.07-20.2 329.07 0 325.82 0 325.82-25 329.07-25.25ZM351.57-6.4L351.57-6.4Q350.67-8.8 350.67-12L350.67-12Q350.67-18.15 354.12-21.68 357.57-25.2 362.77-25.2L362.77-25.2Q370.92-25.2 373.47-18.6L373.47-18.6Q374.42-16.2 374.42-13L374.42-13Q374.42-6.85 370.97-3.33 367.52 0.2 362.32 0.2L362.32 0.2Q354.17 0.2 351.57-6.4ZM353.92-12.35Q353.92-7.75 356.3-5.23 358.67-2.7 362.42-2.7 366.17-2.7 368.67-5.38 371.17-8.05 371.17-12.65 371.17-17.25 368.82-19.78 366.47-22.3 362.7-22.3 358.92-22.3 356.42-19.63 353.92-16.95 353.92-12.35ZM388.17 0L378.92-25 382.57-25.25 389.82-3.85 397.67-25 401.27-25.25 391.17 0 388.17 0ZM406.77-19.9L405.87-22.3Q411.32-25 415.42-25.15L415.42-25.15Q418.67-25.15 420.44-24.33 422.22-23.5 423.32-22.03 424.42-20.55 424.42-17.9L424.42-17.9 424.42 0 421.17 0 421.17-1.9Q414.32 0.2 412.37 0.2L412.37 0.2Q412.27 0.2 412.22 0.2L412.22 0.2Q407.72 0.2 406.07-2.55L406.07-2.55Q405.47-3.55 405.39-4.5 405.32-5.45 405.32-6.1L405.32-6.1Q405.32-7.9 406.72-9.33 408.12-10.75 410.07-11.25L410.07-11.25Q413.37-12.1 421.17-12.75L421.17-12.75 421.17-16.8Q421.17-22.25 415.47-22.25L415.47-22.25Q411.47-22.25 406.77-19.9L406.77-19.9ZM408.37-5.7L408.37-5.7Q408.37-2.1 413.32-2.1L413.32-2.1Q417.27-2.1 421.17-3.8L421.17-3.8 421.17-10.95Q413.37-9.85 411.52-9.25L411.52-9.25Q408.37-8.25 408.37-5.7ZM440.26-3.6L440.86-0.9Q439.96 0 437.61 0L437.61 0Q434.31 0 433.16-1.7L433.16-1.7Q431.21-3.55 431.21-6.7L431.21-6.7 431.21-22.1 428.41-22.1 428.86-25 431.21-25 431.21-29.95 434.46-30.25 434.46-25 440.26-25 440.26-22.1 434.46-22.1 434.46-5.9Q434.46-3 437.46-3L437.46-3Q438.76-3 440.26-3.6L440.26-3.6ZM447.06-25L450.31-25.25 450.31 0 447.06 0 447.06-25ZM448.56-31.7Q447.56-31.7 447.04-32.35 446.51-33 446.51-34 446.51-35 447.09-35.63 447.66-36.25 448.66-36.25 449.66-36.25 450.29-35.63 450.91-35 450.91-33.9 450.91-32.8 450.24-32.25 449.56-31.7 448.56-31.7ZM457.31-6.4L457.31-6.4Q456.41-8.8 456.41-12L456.41-12Q456.41-18.15 459.86-21.68 463.31-25.2 468.51-25.2L468.51-25.2Q476.66-25.2 479.21-18.6L479.21-18.6Q480.16-16.2 480.16-13L480.16-13Q480.16-6.85 476.71-3.33 473.26 0.2 468.06 0.2L468.06 0.2Q459.91 0.2 457.31-6.4ZM459.66-12.35Q459.66-7.75 462.03-5.23 464.41-2.7 468.16-2.7 471.91-2.7 474.41-5.38 476.91-8.05 476.91-12.65 476.91-17.25 474.56-19.78 472.21-22.3 468.43-22.3 464.66-22.3 462.16-19.63 459.66-16.95 459.66-12.35ZM488.91-25.25L488.91-22.25Q492.66-25 496.01-25.15L496.01-25.15Q499.06-25.15 500.71-24.4 502.36-23.65 503.43-22.28 504.51-20.9 504.51-18.4L504.51-18.4 504.51 0 501.26 0 501.26-17.55Q501.26-19.4 500.46-20.4L500.46-20.4Q498.86-22.25 495.56-22.25L495.56-22.25Q492.41-22.1 488.91-20.2L488.91-20.2 488.91 0 485.66 0 485.66-25 488.91-25.25Z" fill="#c9ad8b" data-fill-palette-color="accent"></path><path d="M533.31-3.6L533.91-0.9Q533.01 0 530.66 0L530.66 0Q527.36 0 526.21-1.7L526.21-1.7Q524.26-3.55 524.26-6.7L524.26-6.7 524.26-22.1 521.46-22.1 521.91-25 524.26-25 524.26-29.95 527.51-30.25 527.51-25 533.31-25 533.31-22.1 527.51-22.1 527.51-5.9Q527.51-3 530.51-3L530.51-3Q531.81-3 533.31-3.6L533.31-3.6ZM542.81-37.5L542.81-22.15Q546.76-25 550.41-25.15L550.41-25.15Q553.51-25.15 555.16-24.4 556.81-23.65 557.85-22.28 558.91-20.9 558.91-18.4L558.91-18.4 558.91 0 555.66 0 555.66-17.55Q555.66-19.4 554.85-20.4L554.85-20.4Q553.26-22.25 549.96-22.25L549.96-22.25Q546.71-22.1 542.81-20.15L542.81-20.15 542.81 0 539.56 0 539.56-37.25 542.81-37.5ZM578.25-24.5L576.95-21.5Q576.15-21.95 575.25-21.95 574.35-21.95 574.25-21.9L574.25-21.9Q572.35-21.9 570.43-20.53 568.5-19.15 567.15-17.45L567.15-17.45 567.15 0 563.9 0 563.9-25 567.15-25.25 567.15-19.65Q569-22 570.3-22.95L570.3-22.95Q572.7-24.75 574.9-24.85L574.9-24.85Q575.2-24.9 576-24.9 576.8-24.9 578.25-24.5L578.25-24.5ZM581.65-6.4L581.65-6.4Q580.75-8.8 580.75-12L580.75-12Q580.75-18.15 584.2-21.68 587.65-25.2 592.85-25.2L592.85-25.2Q601-25.2 603.55-18.6L603.55-18.6Q604.5-16.2 604.5-13L604.5-13Q604.5-6.85 601.05-3.33 597.6 0.2 592.4 0.2L592.4 0.2Q584.25 0.2 581.65-6.4ZM584-12.35Q584-7.75 586.38-5.23 588.75-2.7 592.5-2.7 596.25-2.7 598.75-5.38 601.25-8.05 601.25-12.65 601.25-17.25 598.9-19.78 596.55-22.3 592.78-22.3 589-22.3 586.5-19.63 584-16.95 584-12.35ZM616.4-3.2L616.4-3.2Q617.5-2.8 619.9-2.8 622.3-2.8 626.1-4.75L626.1-4.75 626.1-25 629.35-25.25 629.35 0 626.1 0 626.1-2.7Q622.4 0.15 618.55 0.15L618.55 0.15Q613.75 0.15 611.6-2.7L611.6-2.7Q610.5-4.1 610.5-6.6L610.5-6.6 610.5-25 613.75-25.25 613.75-7.45Q613.75-4.35 616.4-3.2ZM639.95-9.65L639.95-9.65Q636.25-11.5 636.25-16.6L636.25-16.6Q636.25-20.8 639.15-23 642.04-25.2 646.54-25.2L646.54-25.2Q647.75-25.2 649.5-24.95L649.5-24.95 658.9-25.2 658.8-23.3 653.35-23.3Q656.1-21.25 656.1-17.13 656.1-13 653.35-10.78 650.6-8.55 646.25-8.55L646.25-8.55Q643.45-8.55 641.6-9.05L641.6-9.05Q640.65-8.15 640.65-6.95L640.65-6.95Q640.65-5.25 642.52-4.5 644.4-3.75 646.95-3.4L646.95-3.4Q652.6-2.65 655.1-1.3L655.1-1.3Q658.7 0.7 658.7 4.85 658.7 9 654.75 11L654.75 11Q651.75 12.5 647.5 12.5 643.25 12.5 640.95 11.85L640.95 11.85Q634.9 10.1 634.9 5.35 634.9 0.6 640.25-2.7L640.25-2.7Q638.15-4.25 638.15-6.3 638.15-8.35 639.95-9.65ZM655.45 4.8L655.45 4.8Q655.45 1.55 651.15 0.3L651.15 0.3Q649.95-0.05 646.85-0.55 643.75-1.05 642-1.75L642-1.75Q638.15 1.45 638.15 4.45L638.15 4.45Q638.15 5.75 638.54 6.6 638.95 7.45 639.95 8.1L639.95 8.1Q642.15 9.6 646.65 9.6L646.65 9.6Q652.55 9.6 654.65 7.1L654.65 7.1Q655.45 6.15 655.45 4.8ZM652.7-17.25L652.7-17.25Q652.7-22.55 646.4-22.55L646.4-22.55Q643.4-22.55 641.45-21.18 639.5-19.8 639.5-16.98 639.5-14.15 640.9-12.68 642.29-11.2 645.62-11.2 648.95-11.2 650.82-12.8 652.7-14.4 652.7-17.25ZM668.14-37.5L668.14-22.15Q672.09-25 675.74-25.15L675.74-25.15Q678.84-25.15 680.49-24.4 682.14-23.65 683.19-22.28 684.24-20.9 684.24-18.4L684.24-18.4 684.24 0 680.99 0 680.99-17.55Q680.99-19.4 680.19-20.4L680.19-20.4Q678.59-22.25 675.29-22.25L675.29-22.25Q672.04-22.1 668.14-20.15L668.14-20.15 668.14 0 664.89 0 664.89-37.25 668.14-37.5Z" fill="#d5b263" data-fill-palette-color="primary"></path><path d="M703.19 0L703.19-35 712.19-35Q722.69-35 725.89-26.2L725.89-26.2Q727.09-23 727.09-17.78 727.09-12.55 725.94-8.97 724.79-5.4 722.69-3.4 720.59-1.4 717.61-0.7 714.64 0 710.94 0L710.94 0 703.19 0ZM711.94-32.25L706.59-32.25 706.59-2.75 710.69-2.75Q713.29-2.75 715.69-3.2L715.69-3.2Q723.69-4.6 723.69-18.05L723.69-18.05Q723.69-25.6 720.19-29.2L720.19-29.2Q717.14-32.25 711.94-32.25L711.94-32.25ZM733.79-19.9L732.89-22.3Q738.34-25 742.44-25.15L742.44-25.15Q745.69-25.15 747.46-24.33 749.24-23.5 750.33-22.03 751.44-20.55 751.44-17.9L751.44-17.9 751.44 0 748.19 0 748.19-1.9Q741.34 0.2 739.39 0.2L739.39 0.2Q739.29 0.2 739.24 0.2L739.24 0.2Q734.74 0.2 733.09-2.55L733.09-2.55Q732.49-3.55 732.41-4.5 732.34-5.45 732.34-6.1L732.34-6.1Q732.34-7.9 733.74-9.33 735.14-10.75 737.09-11.25L737.09-11.25Q740.39-12.1 748.19-12.75L748.19-12.75 748.19-16.8Q748.19-22.25 742.49-22.25L742.49-22.25Q738.49-22.25 733.79-19.9L733.79-19.9ZM735.39-5.7L735.39-5.7Q735.39-2.1 740.34-2.1L740.34-2.1Q744.29-2.1 748.19-3.8L748.19-3.8 748.19-10.95Q740.39-9.85 738.54-9.25L738.54-9.25Q735.39-8.25 735.39-5.7ZM767.28-3.6L767.88-0.9Q766.98 0 764.63 0L764.63 0Q761.33 0 760.18-1.7L760.18-1.7Q758.23-3.55 758.23-6.7L758.23-6.7 758.23-22.1 755.43-22.1 755.88-25 758.23-25 758.23-29.95 761.48-30.25 761.48-25 767.28-25 767.28-22.1 761.48-22.1 761.48-5.9Q761.48-3 764.48-3L764.48-3Q765.78-3 767.28-3.6L767.28-3.6ZM773.48-19.9L772.58-22.3Q778.03-25 782.13-25.15L782.13-25.15Q785.38-25.15 787.16-24.33 788.93-23.5 790.03-22.03 791.13-20.55 791.13-17.9L791.13-17.9 791.13 0 787.88 0 787.88-1.9Q781.03 0.2 779.08 0.2L779.08 0.2Q778.98 0.2 778.93 0.2L778.93 0.2Q774.43 0.2 772.78-2.55L772.78-2.55Q772.18-3.55 772.11-4.5 772.03-5.45 772.03-6.1L772.03-6.1Q772.03-7.9 773.43-9.33 774.83-10.75 776.78-11.25L776.78-11.25Q780.08-12.1 787.88-12.75L787.88-12.75 787.88-16.8Q787.88-22.25 782.18-22.25L782.18-22.25Q778.18-22.25 773.48-19.9L773.48-19.9ZM775.08-5.7L775.08-5.7Q775.08-2.1 780.03-2.1L780.03-2.1Q783.98-2.1 787.88-3.8L787.88-3.8 787.88-10.95Q780.08-9.85 778.23-9.25L778.23-9.25Q775.08-8.25 775.08-5.7Z" fill="#c9ad8b" data-fill-palette-color="accent"></path></g></svg></g></svg></g></svg></g></svg></g><g transform="matrix(1,0,0,1,107.55871924123845,0)"><svg viewBox="0 0 180.40256151752308 180.40256151752308" height="180.40256151752308" width="180.40256151752308"><g><svg viewBox="0 0 180.40256151752308 180.40256151752308" height="180.40256151752308" width="180.40256151752308"><g transform="matrix(1,0,0,1,47.67998922794025,63.92796241451424)"><svg viewBox="0 0 85.04258306164259 52.54663668849461" height="52.54663668849461" width="85.04258306164259"><g><svg xmlns="http://www.w3.org/2000/svg" xmlns:xlink="http://www.w3.org/1999/xlink" version="1.1" x="0" y="0" viewBox="0.8 19.6 98.4 60.800000000000004" enable-background="new 0 0 100 100" xml:space="preserve" height="52.54663668849461" width="85.04258306164259" class="icon-dxe-0" data-fill-palette-color="accent" id="dxe-0"><path d="M98.8 49.1C97.7 44.5 95.1 40.3 91.4 37.4 87.6 34.4 82.9 32.7 78.1 32.7H76V56.5L99.2 51zM79.9 51.6V36.7C86.5 37.4 92.1 41.9 94.4 48.1zM72.7 60.7C84 58 89.3 56.7 91.9 56.1 92.2 57.6 92.4 59.1 92.4 60.7 92.4 71.6 83.6 80.4 72.7 80.4 61.9 80.4 53 71.6 53 60.7S61.9 41 72.7 41zM66.1 19.6H12.2C8.5 19.6 5.5 22.6 5.5 26.3V60.2C5.5 61.1 5.2 61.9 4.7 62.6L1.2 66.8C0.9 67.1 0.8 67.5 0.8 67.9V69.8C0.8 72.3 2.8 74.3 5.3 74.3H54C51.2 70.4 49.5 65.7 49.5 60.5H12.2V26.3H66V38.4C68.1 37.8 70.3 37.4 72.7 37.4V26.3C72.8 22.6 69.8 19.6 66.1 19.6M31.9 67.4H46.4V67.9C46.4 69.2 45.4 70.2 44.1 70.2H34.2C32.9 70.2 31.9 69.2 31.9 67.9z" fill="#c9ad8b" data-fill-palette-color="accent"></path></svg></g></svg></g><g id="text-0"><path d="M10.335 63.486v0c0.406 0.124 0.749 0.303 1.029 0.539 0.277 0.242 0.492 0.515 0.643 0.818 0.151 0.304 0.235 0.641 0.251 1.011 0.018 0.364-0.029 0.732-0.143 1.106v0c-0.126 0.413-0.316 0.767-0.57 1.063-0.252 0.289-0.585 0.499-0.997 0.631v0l0.806 0.245-0.386 1.269-2.901-0.882 0.386-1.269c0.288 0.088 0.559 0.116 0.812 0.086 0.255-0.037 0.483-0.115 0.683-0.233 0.209-0.123 0.387-0.283 0.534-0.482 0.146-0.199 0.258-0.423 0.333-0.673v0c0.128-0.42 0.133-0.79 0.016-1.112-0.119-0.315-0.392-0.538-0.818-0.668v0c-0.223-0.068-0.425-0.086-0.606-0.055-0.181 0.031-0.356 0.099-0.525 0.206-0.17 0.113-0.338 0.263-0.502 0.449-0.156 0.182-0.328 0.395-0.516 0.638v0c-0.203 0.289-0.422 0.574-0.657 0.853-0.235 0.279-0.49 0.517-0.764 0.713-0.281 0.194-0.593 0.325-0.936 0.392-0.336 0.07-0.727 0.037-1.173-0.099v0c-0.393-0.12-0.712-0.295-0.957-0.527-0.253-0.227-0.441-0.492-0.564-0.794-0.131-0.298-0.202-0.62-0.212-0.967-0.003-0.345 0.05-0.694 0.158-1.048v0c0.126-0.413 0.317-0.738 0.576-0.974 0.267-0.241 0.565-0.398 0.894-0.47v0l-0.796-0.242 0.385-1.269 2.764 0.841-0.386 1.268c-0.518-0.157-0.966-0.143-1.345 0.042-0.377 0.179-0.636 0.501-0.777 0.967v0c-0.124 0.406-0.132 0.776-0.026 1.11 0.115 0.329 0.343 0.545 0.684 0.648v0c0.177 0.054 0.339 0.064 0.485 0.03 0.146-0.034 0.292-0.101 0.437-0.201 0.138-0.101 0.285-0.243 0.441-0.424 0.147-0.177 0.314-0.384 0.5-0.622v0c0.22-0.298 0.455-0.589 0.705-0.87 0.252-0.289 0.527-0.531 0.823-0.728 0.303-0.194 0.634-0.33 0.994-0.407 0.36-0.077 0.766-0.046 1.218 0.091z" fill="#c9ad8b" data-fill-palette-color="accent"></path><path d="M9.569 54.562l0.572-1.332 5.708 3.536-0.722 1.681-3.95-0.935 3.395 2.229-0.718 1.671-6.495-1.703 0.572-1.332 4.307 1.223-3.796-2.413 0.612-1.426 4.364 1.091z" fill="#c9ad8b" data-fill-palette-color="accent"></path><path d="M10.884 46.061l1.582 0.856-0.856 1.582-1.582-0.856zM18.536 48.657l1.166 0.631-2.122 3.923-1.166-0.63 0.699-1.293-3.499-1.892-0.699 1.293-1.175-0.636 1.398-2.586 4.675 2.528z" fill="#c9ad8b" data-fill-palette-color="accent"></path><path d="M22.481 40.925l0.982-0.893c0.528 0.464 0.823 1.008 0.887 1.632 0.067 0.618-0.104 1.218-0.515 1.8v0c-0.221 0.314-0.48 0.567-0.776 0.761-0.286 0.192-0.59 0.313-0.911 0.364-0.315 0.054-0.642 0.042-0.98-0.037-0.329-0.081-0.65-0.232-0.963-0.453v0l-2.344-1.653-0.864 1.226-1.093-0.77 0.865-1.226-2.167-1.528 0.853-1.21 2.167 1.528 1.6-2.268 1.092 0.77-1.6 2.268 2.344 1.653c0.347 0.245 0.667 0.344 0.959 0.299 0.286-0.05 0.528-0.214 0.726-0.494v0c0.241-0.342 0.323-0.666 0.245-0.972-0.078-0.306-0.246-0.572-0.507-0.797z" fill="#c9ad8b" data-fill-palette-color="accent"></path><path d="M28.535 33.234l1.995 1.732-3.896 4.485-0.986-0.856-0.538-5.478-1.631 1.878 1.009 0.877-0.85 0.977-2.017-1.752 3.801-4.377 1.009 0.876 0.523 5.465 1.719-1.979-0.994-0.863z" fill="#c9ad8b" data-fill-palette-color="accent"></path><path d="M35.39 26.59l-4.094 3.764c0.357 0.287 0.771 0.418 1.242 0.394 0.471-0.024 0.932-0.242 1.381-0.655v0c0.353-0.325 0.612-0.661 0.777-1.008 0.155-0.348 0.245-0.7 0.27-1.058v0l1.255 0.257c-0.025 0.6-0.161 1.121-0.408 1.561-0.241 0.436-0.571 0.847-0.99 1.232v0c-0.378 0.348-0.787 0.607-1.225 0.778-0.439 0.171-0.881 0.252-1.327 0.242-0.446 0.001-0.879-0.095-1.298-0.287-0.424-0.188-0.81-0.47-1.157-0.849v0c-0.339-0.368-0.589-0.767-0.75-1.195-0.166-0.424-0.243-0.856-0.229-1.297 0.018-0.436 0.126-0.86 0.322-1.274 0.192-0.419 0.48-0.804 0.864-1.157v0c0.393-0.362 0.814-0.623 1.262-0.784 0.448-0.161 0.902-0.219 1.36-0.176 0.464 0.049 0.93 0.197 1.4 0.445 0.47 0.248 0.918 0.604 1.345 1.067zM30.465 29.359l2.815-2.588c-0.343-0.262-0.736-0.366-1.18-0.311-0.444 0.054-0.837 0.239-1.18 0.554v0c-0.343 0.315-0.563 0.694-0.659 1.136-0.096 0.442-0.028 0.845 0.204 1.209z" fill="#c9ad8b" data-fill-palette-color="accent"></path><path d="M40.358 18.107l0.412 1.487c-0.196 0.035-0.381 0.09-0.554 0.167-0.172 0.068-0.354 0.173-0.547 0.316v0c-0.264 0.196-0.483 0.418-0.657 0.667-0.174 0.248-0.284 0.514-0.331 0.795-0.056 0.281-0.044 0.574 0.038 0.88 0.083 0.296 0.243 0.604 0.48 0.924v0l0.986 1.329 1.189-0.881 0.79 1.065-3.584 2.657-0.79-1.065 1.206-0.894-2.369-3.195-1.206 0.893-0.796-1.073 2.395-1.775 0.998 1.346c-0.203-0.677-0.199-1.269 0.013-1.777 0.217-0.502 0.586-0.947 1.11-1.334v0c0.16-0.118 0.343-0.228 0.548-0.33 0.205-0.092 0.428-0.159 0.669-0.202z" fill="#c9ad8b" data-fill-palette-color="accent"></path><path d="M49.69 18.37l0.69 1.132-3.808 2.323-0.691-1.132 1.246-0.76-3.452-5.66-1.246 0.76-0.696-1.141 2.501-1.525 4.148 6.8z" fill="#c9ad8b" data-fill-palette-color="accent"></path><path d="M52.245 16.389v0c-0.161-0.349-0.206-0.701-0.136-1.058 0.063-0.354 0.211-0.689 0.442-1.007 0.225-0.315 0.515-0.611 0.869-0.887 0.358-0.271 0.746-0.502 1.163-0.694v0c0.23-0.106 0.429-0.19 0.597-0.253 0.165-0.068 0.335-0.132 0.512-0.19v0l-0.112-0.243c-0.143-0.311-0.372-0.489-0.687-0.533-0.314-0.044-0.671 0.026-1.069 0.21v0c-0.361 0.166-0.705 0.385-1.032 0.657-0.328 0.272-0.615 0.581-0.862 0.929v0l-1.033-0.792c0.295-0.408 0.638-0.784 1.03-1.131 0.394-0.34 0.843-0.626 1.347-0.858v0c0.33-0.152 0.671-0.264 1.022-0.335 0.352-0.072 0.691-0.081 1.018-0.027 0.333 0.05 0.635 0.175 0.908 0.373 0.273 0.199 0.501 0.497 0.684 0.896v0l1.862 4.042-1.326 0.611-0.408-0.887c-0.06 0.427-0.253 0.826-0.581 1.196-0.328 0.37-0.728 0.664-1.201 0.881v0c-0.293 0.135-0.588 0.222-0.887 0.262-0.299 0.04-0.58 0.026-0.845-0.041-0.261-0.076-0.502-0.206-0.723-0.391-0.224-0.176-0.408-0.419-0.552-0.73zM55.038 15.94v0c0.268-0.123 0.501-0.272 0.699-0.447 0.199-0.175 0.358-0.361 0.478-0.56 0.126-0.201 0.2-0.409 0.222-0.623 0.022-0.214-0.013-0.42-0.104-0.619v0l-0.108-0.234c-0.226 0.066-0.434 0.139-0.623 0.219-0.183 0.077-0.347 0.148-0.49 0.215v0c-0.653 0.301-1.108 0.616-1.364 0.945-0.256 0.329-0.325 0.621-0.207 0.876v0c0.232 0.504 0.731 0.58 1.497 0.228z" fill="#c9ad8b" data-fill-palette-color="accent"></path><path d="M65.615 8.706l1.319 3.873-1.401 0.477-1.319-3.873c-0.168-0.493-0.375-0.803-0.62-0.928-0.252-0.124-0.553-0.126-0.904-0.008v0c-0.512 0.175-0.86 0.525-1.043 1.051-0.187 0.534-0.156 1.168 0.094 1.9v0l0.961 2.822-1.392 0.474-2.14-6.286 1.391-0.473 0.54 1.586c-0.043-0.593 0.072-1.107 0.345-1.54 0.272-0.433 0.684-0.743 1.235-0.931v0c0.642-0.219 1.217-0.179 1.724 0.119 0.511 0.289 0.915 0.868 1.21 1.737z" fill="#c9ad8b" data-fill-palette-color="accent"></path><path d="M73.303 1.515l2.033 9.067-1.444 0.324-0.135-0.602c-0.219 0.309-0.457 0.562-0.715 0.76-0.252 0.19-0.559 0.325-0.92 0.407v0c-0.415 0.093-0.821 0.096-1.219 0.01-0.392-0.088-0.749-0.254-1.071-0.498-0.327-0.236-0.611-0.548-0.852-0.936-0.233-0.383-0.405-0.822-0.516-1.316v0c-0.109-0.488-0.141-0.959-0.096-1.412 0.053-0.454 0.176-0.861 0.369-1.22 0.188-0.351 0.441-0.65 0.758-0.897 0.322-0.255 0.69-0.429 1.105-0.521v0c0.361-0.081 0.696-0.089 1.006-0.026 0.315 0.056 0.637 0.177 0.966 0.363v0l-0.421-1.875-1.243 0.278-0.293-1.304zM73.505 9.18l-0.679-3.029c-0.209-0.15-0.462-0.244-0.759-0.282-0.29-0.04-0.559-0.033-0.806 0.022v0c-0.542 0.121-0.939 0.414-1.193 0.879-0.254 0.464-0.311 1.011-0.17 1.639v0c0.139 0.622 0.423 1.088 0.851 1.4 0.426 0.305 0.91 0.396 1.452 0.275v0c0.247-0.055 0.494-0.16 0.741-0.314 0.252-0.162 0.439-0.358 0.563-0.59z" fill="#c9ad8b" data-fill-palette-color="accent"></path><path d="M93.15 4.617v0c0.005 0.617-0.055 1.21-0.181 1.78-0.126 0.563-0.331 1.058-0.615 1.485-0.284 0.427-0.652 0.766-1.102 1.016-0.45 0.257-0.994 0.388-1.632 0.394v0l-3.021 0.024-0.075-9.292 3.022-0.024c0.63-0.005 1.173 0.117 1.627 0.367 0.454 0.25 0.827 0.586 1.118 1.009 0.291 0.423 0.508 0.911 0.649 1.465 0.135 0.561 0.205 1.153 0.21 1.776zM91.68 4.629v0c-0.009-1.076-0.197-1.897-0.565-2.462-0.375-0.559-0.894-0.836-1.558-0.831v0l-1.552 0.013 0.053 6.629 1.552-0.012c0.665-0.005 1.18-0.297 1.545-0.876 0.358-0.585 0.533-1.406 0.525-2.461z" fill="#c9ad8b" data-fill-palette-color="accent"></path><path d="M95.049 7.452v0c0.037-0.382 0.175-0.709 0.414-0.982 0.233-0.274 0.529-0.49 0.888-0.648 0.353-0.159 0.752-0.269 1.199-0.329 0.446-0.054 0.897-0.059 1.354-0.015v0c0.252 0.024 0.467 0.052 0.642 0.082 0.177 0.024 0.356 0.055 0.539 0.093v0l0.025-0.266c0.033-0.341-0.076-0.61-0.325-0.805-0.25-0.196-0.593-0.315-1.029-0.357v0c-0.396-0.038-0.803-0.022-1.223 0.048-0.42 0.07-0.824 0.193-1.213 0.369v0l-0.494-1.204c0.46-0.204 0.946-0.357 1.459-0.459 0.512-0.095 1.044-0.117 1.596-0.064v0c0.362 0.035 0.712 0.11 1.053 0.225 0.34 0.115 0.638 0.278 0.892 0.488 0.262 0.211 0.461 0.471 0.597 0.78 0.136 0.309 0.182 0.682 0.14 1.119v0l-0.425 4.43-1.453-0.139 0.094-0.972c-0.267 0.339-0.634 0.586-1.104 0.741-0.469 0.155-0.963 0.207-1.481 0.157v0c-0.321-0.031-0.62-0.104-0.898-0.22-0.278-0.116-0.515-0.27-0.71-0.461-0.188-0.197-0.33-0.431-0.428-0.702-0.105-0.265-0.142-0.568-0.109-0.909zM97.688 8.47v0c0.293 0.028 0.57 0.017 0.829-0.034 0.26-0.051 0.491-0.132 0.694-0.244 0.21-0.111 0.379-0.253 0.506-0.426 0.127-0.174 0.201-0.37 0.222-0.588v0l0.024-0.256c-0.229-0.056-0.445-0.098-0.649-0.124-0.197-0.026-0.374-0.046-0.531-0.061v0c-0.716-0.069-1.268-0.025-1.654 0.13-0.387 0.156-0.593 0.373-0.62 0.653v0c-0.053 0.553 0.34 0.869 1.179 0.95z" fill="#c9ad8b" data-fill-palette-color="accent"></path><path d="M109.26 9.042l1.21 0.543c-0.215 0.669-0.596 1.158-1.141 1.465-0.539 0.309-1.158 0.391-1.857 0.247v0c-0.376-0.078-0.712-0.213-1.007-0.408-0.291-0.186-0.523-0.416-0.697-0.689-0.176-0.267-0.295-0.572-0.358-0.914-0.057-0.334-0.047-0.688 0.031-1.064v0l0.579-2.808-1.469-0.304 0.27-1.308 1.469 0.303 0.536-2.597 1.45 0.299-0.536 2.597 2.718 0.561-0.27 1.308-2.718-0.56-0.579 2.808c-0.086 0.416-0.05 0.749 0.108 0.999 0.16 0.243 0.407 0.399 0.743 0.468v0c0.409 0.084 0.739 0.03 0.989-0.163 0.25-0.193 0.426-0.454 0.529-0.783z" fill="#c9ad8b" data-fill-palette-color="accent"></path><path d="M112.476 10.321v0c0.116-0.366 0.319-0.657 0.611-0.873 0.285-0.219 0.62-0.368 1.004-0.448 0.378-0.082 0.792-0.105 1.241-0.071 0.447 0.041 0.889 0.131 1.327 0.27v0c0.242 0.077 0.445 0.148 0.611 0.215 0.168 0.06 0.337 0.128 0.507 0.203v0l0.081-0.254c0.103-0.327 0.054-0.612-0.149-0.856-0.203-0.244-0.514-0.432-0.932-0.565v0c-0.379-0.12-0.781-0.19-1.206-0.209-0.425-0.02-0.846 0.016-1.263 0.107v0l-0.231-1.281c0.493-0.103 1-0.151 1.523-0.143 0.52 0.014 1.045 0.105 1.574 0.272v0c0.346 0.11 0.674 0.256 0.982 0.44 0.308 0.184 0.565 0.405 0.771 0.665 0.212 0.261 0.352 0.557 0.419 0.887 0.068 0.331 0.036 0.705-0.096 1.123v0l-1.344 4.243-1.392-0.44 0.295-0.931c-0.332 0.276-0.743 0.44-1.234 0.493-0.491 0.053-0.985 0.001-1.482-0.157v0c-0.307-0.097-0.584-0.232-0.831-0.403-0.247-0.172-0.447-0.371-0.598-0.599-0.142-0.232-0.233-0.491-0.272-0.776-0.048-0.281-0.02-0.585 0.084-0.912zM114.843 11.869v0c0.281 0.089 0.554 0.136 0.818 0.14 0.264 0.005 0.508-0.026 0.73-0.092 0.229-0.064 0.423-0.168 0.584-0.311 0.16-0.143 0.274-0.319 0.34-0.529v0l0.078-0.245c-0.212-0.103-0.415-0.189-0.609-0.257-0.187-0.067-0.356-0.124-0.506-0.171v0c-0.686-0.217-1.234-0.29-1.645-0.219-0.411 0.071-0.658 0.241-0.744 0.509v0c-0.168 0.529 0.15 0.921 0.954 1.175z" fill="#c9ad8b" data-fill-palette-color="accent"></path><path d="M133.542 20.018l-0.644 1.159-3.9-2.165 0.644-1.159 1.285 0.713 3.218-5.796-1.285-0.714 0.649-1.168 3.9 2.166-0.649 1.168-1.33-0.739-3.218 5.797z" fill="#c9ad8b" data-fill-palette-color="accent"></path><path d="M142.947 23.174l-2.379 3.327-1.204-0.86 2.379-3.328c0.303-0.424 0.434-0.772 0.394-1.046-0.046-0.277-0.22-0.523-0.521-0.738v0c-0.44-0.315-0.927-0.394-1.461-0.236-0.543 0.159-1.04 0.554-1.49 1.183v0l-1.734 2.425-1.196-0.855 3.862-5.401 1.196 0.854-0.975 1.363c0.457-0.381 0.941-0.586 1.452-0.617 0.511-0.031 1.003 0.123 1.477 0.462v0c0.552 0.395 0.854 0.885 0.907 1.47 0.063 0.584-0.173 1.249-0.707 1.997z" fill="#c9ad8b" data-fill-palette-color="accent"></path><path d="M148.521 30.802v0c-0.288 0.322-0.592 0.518-0.913 0.589-0.331 0.072-0.663 0.068-0.998-0.01-0.339-0.083-0.672-0.225-0.999-0.425-0.322-0.205-0.618-0.429-0.889-0.671v0c-0.449-0.402-0.837-0.868-1.163-1.398-0.33-0.525-0.563-1.041-0.697-1.548v0l1.268-0.493c0.183 0.577 0.394 1.055 0.633 1.435 0.245 0.384 0.528 0.72 0.85 1.008v0c0.444 0.397 0.807 0.639 1.088 0.726 0.287 0.091 0.505 0.052 0.656-0.117v0c0.073-0.082 0.104-0.173 0.094-0.274-0.006-0.106-0.057-0.239-0.153-0.399-0.092-0.165-0.222-0.364-0.39-0.597-0.178-0.233-0.405-0.519-0.681-0.858v0c-0.219-0.269-0.413-0.535-0.583-0.797-0.175-0.267-0.297-0.537-0.366-0.81-0.073-0.268-0.083-0.534-0.029-0.799 0.048-0.27 0.189-0.535 0.421-0.795v0c0.238-0.266 0.512-0.434 0.824-0.504 0.316-0.076 0.641-0.079 0.975-0.011 0.334 0.069 0.664 0.198 0.989 0.389 0.326 0.191 0.627 0.409 0.903 0.656v0c0.388 0.347 0.72 0.736 0.997 1.167 0.276 0.431 0.47 0.862 0.582 1.293v0l-1.198 0.459c-0.12-0.42-0.284-0.778-0.489-1.072-0.206-0.294-0.464-0.581-0.776-0.859v0c-0.128-0.114-0.27-0.228-0.426-0.34-0.157-0.113-0.312-0.201-0.466-0.265-0.159-0.069-0.307-0.104-0.443-0.107-0.146-0.002-0.262 0.046-0.349 0.143v0c-0.119 0.133-0.1 0.343 0.057 0.63 0.162 0.292 0.485 0.728 0.968 1.308v0c0.27 0.315 0.5 0.618 0.691 0.908 0.191 0.29 0.325 0.572 0.404 0.843 0.083 0.277 0.096 0.545 0.038 0.806-0.053 0.265-0.196 0.528-0.43 0.789z" fill="#c9ad8b" data-fill-palette-color="accent"></path><path d="M158.46 30.624l-1.319 1.223-1.223-1.319 1.319-1.223zM153.54 37.035l-0.972 0.901-3.033-3.272 0.972-0.901 1 1.078 2.917-2.704-0.999-1.078 0.98-0.909 1.998 2.156-3.897 3.613z" fill="#c9ad8b" data-fill-palette-color="accent"></path><path d="M163.543 41.466l-5.302 3.877c-0.371 0.271-0.746 0.448-1.127 0.531-0.375 0.079-0.745 0.078-1.11-0.004-0.369-0.087-0.72-0.242-1.053-0.465-0.332-0.233-0.637-0.54-0.916-0.922v0c-0.679-0.929-0.978-1.929-0.895-3v0l1.334-0.109c-0.07 0.891 0.138 1.669 0.623 2.333v0c0.299 0.409 0.641 0.668 1.027 0.777 0.387 0.099 0.793-0.007 1.219-0.318v0l0.572-0.419c-0.388-0.09-0.715-0.212-0.98-0.365-0.265-0.154-0.507-0.38-0.726-0.679v0c-0.251-0.343-0.413-0.716-0.488-1.12-0.071-0.398-0.055-0.796 0.046-1.192 0.091-0.398 0.258-0.779 0.501-1.143 0.247-0.359 0.559-0.676 0.935-0.951v0c0.376-0.275 0.775-0.478 1.197-0.608 0.421-0.121 0.835-0.165 1.242-0.131 0.403 0.028 0.783 0.136 1.141 0.324 0.362 0.194 0.669 0.462 0.919 0.805v0c0.218 0.299 0.36 0.603 0.425 0.912 0.074 0.311 0.092 0.654 0.053 1.03v0l0.49-0.358zM158.861 43.056l2.382-1.741c0.054-0.252 0.039-0.521-0.044-0.809-0.079-0.282-0.197-0.531-0.355-0.746v0c-0.328-0.448-0.75-0.695-1.268-0.741-0.518-0.046-1.02 0.109-1.506 0.464v0c-0.238 0.174-0.433 0.372-0.585 0.594-0.148 0.227-0.248 0.462-0.3 0.703-0.052 0.242-0.056 0.487-0.011 0.734 0.049 0.253 0.152 0.487 0.31 0.703v0c0.158 0.216 0.362 0.402 0.612 0.558 0.254 0.162 0.509 0.256 0.765 0.281z" fill="#c9ad8b" data-fill-palette-color="accent"></path><path d="M166.177 50.734l-3.533 2.062-0.746-1.279 3.534-2.061c0.45-0.262 0.712-0.527 0.787-0.793 0.072-0.272 0.014-0.567-0.173-0.887v0c-0.273-0.468-0.685-0.739-1.236-0.814-0.561-0.077-1.176 0.079-1.844 0.469v0l-2.575 1.502-0.741-1.269 8.027-4.682 0.74 1.27-3.738 2.18c0.573-0.16 1.099-0.149 1.578 0.032 0.478 0.181 0.864 0.523 1.158 1.026v0c0.342 0.586 0.417 1.157 0.225 1.713-0.182 0.558-0.67 1.069-1.463 1.531z" fill="#c9ad8b" data-fill-palette-color="accent"></path><path d="M168.093 58.848l0.263 1.3c-0.669 0.215-1.288 0.19-1.856-0.075-0.565-0.259-0.992-0.714-1.282-1.365v0c-0.156-0.351-0.241-0.703-0.255-1.056-0.018-0.344 0.033-0.667 0.154-0.969 0.115-0.298 0.293-0.573 0.535-0.822 0.238-0.241 0.532-0.439 0.882-0.595v0l2.621-1.165-0.609-1.371 1.221-0.543 0.609 1.372 2.423-1.077 0.602 1.352-2.424 1.077 1.127 2.536-1.221 0.543-1.127-2.536-2.62 1.165c-0.388 0.173-0.638 0.396-0.749 0.67-0.104 0.271-0.087 0.564 0.053 0.876v0c0.17 0.382 0.406 0.618 0.708 0.709 0.303 0.09 0.617 0.082 0.945-0.026z" fill="#c9ad8b" data-fill-palette-color="accent"></path><path d="M170.995 68.353v0c-0.411 0.133-0.773 0.15-1.086 0.05-0.322-0.104-0.608-0.275-0.857-0.511-0.252-0.243-0.468-0.532-0.65-0.87-0.175-0.339-0.319-0.682-0.43-1.027v0c-0.186-0.574-0.286-1.171-0.301-1.793-0.021-0.62 0.038-1.183 0.176-1.689v0l1.344 0.212c-0.133 0.591-0.191 1.11-0.175 1.559 0.018 0.455 0.094 0.888 0.227 1.299v0c0.184 0.567 0.376 0.959 0.575 1.174 0.202 0.223 0.41 0.299 0.626 0.23v0c0.104-0.034 0.177-0.097 0.219-0.19 0.048-0.095 0.071-0.236 0.069-0.422 0.004-0.189-0.009-0.426-0.037-0.713-0.037-0.291-0.089-0.652-0.157-1.083v0c-0.054-0.343-0.088-0.67-0.103-0.983-0.017-0.319 0.014-0.613 0.092-0.883 0.071-0.268 0.197-0.503 0.376-0.706 0.177-0.209 0.432-0.367 0.764-0.475v0c0.339-0.11 0.661-0.117 0.966-0.021 0.311 0.093 0.594 0.254 0.848 0.481 0.254 0.227 0.474 0.505 0.659 0.834 0.186 0.329 0.336 0.669 0.451 1.021v0c0.161 0.495 0.252 0.999 0.274 1.51 0.022 0.512-0.027 0.981-0.148 1.41v0l-1.266-0.205c0.107-0.424 0.146-0.815 0.116-1.173-0.03-0.358-0.109-0.735-0.238-1.133v0c-0.053-0.163-0.119-0.332-0.197-0.508-0.079-0.176-0.169-0.331-0.269-0.464-0.103-0.14-0.213-0.244-0.33-0.315-0.125-0.075-0.25-0.092-0.373-0.051v0c-0.169 0.055-0.259 0.246-0.268 0.573-0.007 0.334 0.053 0.873 0.179 1.617v0c0.075 0.408 0.122 0.785 0.141 1.132 0.019 0.347-0.006 0.658-0.076 0.932-0.067 0.281-0.192 0.52-0.373 0.716-0.179 0.202-0.435 0.357-0.768 0.465z" fill="#c9ad8b" data-fill-palette-color="accent"></path><path d="M8.865 120.02v0c-0.406 0.124-0.791 0.165-1.154 0.125-0.365-0.047-0.695-0.154-0.99-0.322-0.295-0.168-0.552-0.402-0.771-0.7-0.218-0.292-0.383-0.625-0.497-0.998v0c-0.126-0.413-0.165-0.813-0.118-1.2 0.049-0.38 0.208-0.74 0.477-1.08v0l-0.806 0.245-0.386-1.268 2.901-0.882 0.386 1.268c-0.288 0.088-0.529 0.215-0.722 0.381-0.191 0.173-0.337 0.364-0.438 0.574-0.106 0.218-0.164 0.451-0.175 0.697-0.011 0.247 0.022 0.495 0.098 0.744v0c0.128 0.42 0.33 0.731 0.606 0.933 0.274 0.196 0.625 0.229 1.05 0.1v0c0.223-0.068 0.401-0.165 0.535-0.292 0.133-0.127 0.24-0.281 0.321-0.463 0.079-0.189 0.134-0.406 0.167-0.652 0.028-0.238 0.053-0.51 0.074-0.817v0c0.007-0.353 0.031-0.711 0.071-1.075 0.04-0.363 0.119-0.702 0.238-1.018 0.126-0.317 0.312-0.6 0.559-0.846 0.241-0.245 0.584-0.435 1.03-0.571v0c0.393-0.12 0.756-0.151 1.088-0.095 0.337 0.048 0.641 0.163 0.911 0.346 0.275 0.174 0.513 0.403 0.714 0.686 0.194 0.285 0.345 0.604 0.452 0.958v0c0.126 0.413 0.147 0.79 0.064 1.13-0.087 0.349-0.248 0.645-0.482 0.888v0l0.797-0.242 0.386 1.268-2.764 0.841-0.386-1.269c0.518-0.157 0.883-0.419 1.094-0.784 0.213-0.358 0.249-0.77 0.108-1.236v0c-0.124-0.406-0.322-0.719-0.596-0.936-0.278-0.209-0.588-0.262-0.929-0.158v0c-0.177 0.054-0.317 0.136-0.42 0.246-0.103 0.11-0.186 0.246-0.251 0.409-0.058 0.161-0.102 0.36-0.13 0.598-0.023 0.229-0.047 0.494-0.07 0.795v0c-0.016 0.37-0.05 0.742-0.101 1.116-0.049 0.38-0.142 0.734-0.279 1.062-0.143 0.33-0.343 0.627-0.599 0.892-0.256 0.264-0.611 0.465-1.063 0.602z" fill="#c9ad8b" data-fill-palette-color="accent"></path><path d="M15.675 125.876l0.572 1.332-6.495 1.703-0.722-1.681 3.399-2.219-3.954 0.925-0.718-1.671 5.708-3.536 0.572 1.332-3.853 2.28 4.364-1.09 0.612 1.426-3.796 2.413z" fill="#c9ad8b" data-fill-palette-color="accent"></path><path d="M21.394 131.315l-1.582 0.855-0.856-1.582 1.583-0.856zM15.033 136.297l-1.167 0.631-2.122-3.924 1.167-0.631 0.699 1.293 3.499-1.892-0.699-1.293 1.175-0.635 1.398 2.585-4.674 2.528z" fill="#c9ad8b" data-fill-palette-color="accent"></path><path d="M20.99 143.186l0.511 1.225c-0.615 0.341-1.226 0.437-1.834 0.287-0.605-0.144-1.112-0.507-1.523-1.089v0c-0.221-0.314-0.373-0.642-0.457-0.986-0.085-0.334-0.097-0.661-0.037-0.98 0.054-0.315 0.176-0.619 0.364-0.911 0.187-0.282 0.437-0.534 0.75-0.755v0l2.344-1.653-0.865-1.227 1.092-0.77 0.865 1.227 2.167-1.529 0.853 1.21-2.167 1.528 1.599 2.268-1.092 0.77-1.599-2.268-2.344 1.653c-0.347 0.245-0.548 0.512-0.603 0.803-0.05 0.286 0.024 0.57 0.222 0.85v0c0.241 0.342 0.519 0.527 0.833 0.557 0.314 0.03 0.622-0.04 0.921-0.21z" fill="#c9ad8b" data-fill-palette-color="accent"></path><path d="M27.515 150.712l-1.995 1.733-3.896-4.486 0.986-0.856 5.499 0.234-1.631-1.878-1.009 0.876-0.849-0.978 2.017-1.752 3.802 4.377-1.009 0.876-5.483-0.247 1.718 1.978 0.994-0.862z" fill="#c9ad8b" data-fill-palette-color="accent"></path><path d="M34.628 157.298l-4.093-3.764c-0.256 0.379-0.352 0.803-0.289 1.271 0.063 0.468 0.319 0.908 0.768 1.32v0c0.353 0.325 0.71 0.555 1.07 0.69 0.359 0.126 0.718 0.186 1.076 0.181v0l-0.15 1.272c-0.6 0.025-1.13-0.067-1.59-0.276-0.455-0.204-0.891-0.498-1.31-0.883v0c-0.378-0.348-0.671-0.733-0.878-1.156-0.207-0.423-0.325-0.857-0.353-1.302-0.038-0.445 0.021-0.884 0.178-1.317 0.151-0.438 0.401-0.846 0.749-1.224v0c0.339-0.368 0.715-0.651 1.128-0.848 0.409-0.201 0.833-0.314 1.273-0.337 0.436-0.018 0.868 0.053 1.297 0.215 0.433 0.156 0.842 0.411 1.225 0.763v0c0.393 0.362 0.689 0.759 0.887 1.192 0.198 0.433 0.294 0.88 0.289 1.341-0.01 0.466-0.118 0.943-0.326 1.432-0.207 0.489-0.524 0.965-0.951 1.43zM31.457 152.622l2.814 2.588c0.232-0.364 0.303-0.764 0.212-1.202-0.091-0.438-0.308-0.814-0.651-1.129v0c-0.343-0.315-0.739-0.502-1.188-0.561-0.449-0.059-0.844 0.043-1.187 0.304z" fill="#c9ad8b" data-fill-palette-color="accent"></path><path d="M44.145 159.846l-1.303 0.825c-0.09-0.178-0.197-0.338-0.321-0.481-0.115-0.145-0.268-0.288-0.461-0.432v0c-0.264-0.196-0.54-0.341-0.829-0.435-0.288-0.094-0.574-0.123-0.858-0.086-0.285 0.028-0.562 0.125-0.831 0.293-0.259 0.166-0.508 0.408-0.744 0.727v0l-0.986 1.33 1.189 0.881-0.789 1.065-3.584-2.657 0.79-1.065 1.205 0.894 2.37-3.195-1.206-0.894 0.796-1.073 2.395 1.775-0.998 1.346c0.589-0.391 1.156-0.559 1.703-0.503 0.543 0.061 1.076 0.286 1.599 0.674v0c0.16 0.118 0.318 0.261 0.475 0.429 0.148 0.169 0.277 0.363 0.388 0.582z" fill="#c9ad8b" data-fill-palette-color="accent"></path><path d="M47.616 168.09l-0.691 1.132-3.808-2.323 0.69-1.132 1.246 0.76 3.453-5.66-1.246-0.76 0.695-1.141 2.501 1.526-4.148 6.8z" fill="#c9ad8b" data-fill-palette-color="accent"></path><path d="M51.069 169.224v0c0.161-0.349 0.399-0.612 0.715-0.791 0.31-0.182 0.661-0.288 1.052-0.318 0.385-0.034 0.799-0.006 1.24 0.084 0.438 0.096 0.866 0.241 1.284 0.433v0c0.23 0.106 0.423 0.203 0.579 0.29 0.159 0.081 0.318 0.169 0.478 0.265v0l0.111-0.243c0.143-0.311 0.13-0.6-0.041-0.868-0.171-0.267-0.456-0.493-0.854-0.676v0c-0.361-0.166-0.751-0.286-1.171-0.358-0.419-0.072-0.841-0.09-1.266-0.052v0l-0.069-1.299c0.502-0.041 1.011-0.025 1.528 0.048 0.515 0.079 1.024 0.234 1.528 0.466v0c0.33 0.152 0.636 0.338 0.92 0.559 0.283 0.221 0.51 0.473 0.682 0.756 0.178 0.286 0.28 0.597 0.305 0.933 0.026 0.336-0.053 0.704-0.236 1.102v0l-1.862 4.042-1.326-0.611 0.409-0.886c-0.364 0.232-0.792 0.344-1.286 0.335-0.494-0.009-0.977-0.122-1.451-0.34v0c-0.293-0.135-0.551-0.303-0.775-0.504-0.224-0.201-0.397-0.424-0.518-0.669-0.112-0.248-0.17-0.516-0.173-0.804-0.012-0.285 0.053-0.583 0.197-0.894zM53.225 171.055v0c0.268 0.123 0.532 0.204 0.794 0.241 0.262 0.038 0.507 0.037 0.736 0 0.235-0.035 0.441-0.114 0.618-0.236 0.177-0.122 0.311-0.283 0.403-0.482v0l0.107-0.234c-0.197-0.129-0.388-0.239-0.571-0.331-0.178-0.089-0.338-0.167-0.482-0.233v0c-0.653-0.301-1.188-0.442-1.604-0.422-0.416 0.019-0.683 0.157-0.801 0.412v0c-0.232 0.504 0.034 0.933 0.8 1.285z" fill="#c9ad8b" data-fill-palette-color="accent"></path><path d="M66.114 172.889l-1.319 3.872-1.401-0.477 1.319-3.872c0.168-0.493 0.193-0.864 0.075-1.115-0.124-0.252-0.361-0.438-0.711-0.557v0c-0.512-0.175-1.002-0.109-1.467 0.195-0.474 0.309-0.836 0.83-1.086 1.563v0l-0.961 2.822-1.392-0.474 2.141-6.285 1.391 0.473-0.54 1.586c0.328-0.496 0.732-0.833 1.213-1.009 0.48-0.177 0.996-0.171 1.547 0.016v0c0.642 0.219 1.073 0.601 1.293 1.147 0.228 0.541 0.195 1.246-0.102 2.115z" fill="#c9ad8b" data-fill-palette-color="accent"></path><path d="M75.917 169.885l-2.033 9.067-1.444-0.324 0.135-0.602c-0.33 0.186-0.653 0.314-0.971 0.383-0.309 0.064-0.644 0.056-1.005-0.025v0c-0.415-0.093-0.784-0.263-1.107-0.512-0.317-0.247-0.569-0.549-0.756-0.906-0.195-0.353-0.319-0.756-0.371-1.211-0.047-0.446-0.016-0.916 0.095-1.411v0c0.109-0.488 0.282-0.927 0.517-1.317 0.242-0.388 0.526-0.704 0.854-0.946 0.32-0.237 0.676-0.4 1.068-0.487 0.4-0.093 0.807-0.093 1.222 0v0c0.361 0.081 0.668 0.216 0.92 0.406 0.261 0.185 0.5 0.432 0.719 0.741v0l0.42-1.876-1.243-0.279 0.292-1.304zM72.827 176.903l0.679-3.029c-0.125-0.225-0.314-0.418-0.565-0.58-0.245-0.16-0.491-0.268-0.739-0.323v0c-0.542-0.121-1.026-0.026-1.454 0.285-0.428 0.311-0.712 0.781-0.854 1.41v0c-0.139 0.622-0.082 1.165 0.172 1.629 0.256 0.458 0.654 0.747 1.196 0.868v0c0.247 0.055 0.515 0.066 0.804 0.033 0.297-0.039 0.55-0.136 0.761-0.293z" fill="#c9ad8b" data-fill-palette-color="accent"></path><path d="M93.171 175.785v0c-0.005 0.617-0.075 1.209-0.209 1.777-0.135 0.561-0.348 1.053-0.639 1.475-0.291 0.423-0.664 0.755-1.118 0.998-0.454 0.25-1 0.372-1.638 0.367v0l-3.022-0.024 0.075-9.291 3.022 0.024c0.63 0.005 1.171 0.136 1.621 0.393 0.45 0.257 0.818 0.599 1.102 1.027 0.284 0.427 0.493 0.919 0.625 1.474 0.126 0.563 0.186 1.156 0.181 1.78zM91.701 175.773v0c0.009-1.076-0.166-1.9-0.525-2.471-0.366-0.565-0.881-0.85-1.545-0.855v0l-1.552-0.013-0.053 6.63 1.552 0.012c0.665 0.005 1.184-0.278 1.559-0.85 0.368-0.58 0.556-1.397 0.564-2.453z" fill="#c9ad8b" data-fill-palette-color="accent"></path><path d="M95.317 178.406v0c-0.037-0.382 0.037-0.73 0.22-1.044 0.176-0.313 0.426-0.581 0.749-0.805 0.316-0.223 0.687-0.407 1.114-0.551 0.427-0.137 0.87-0.228 1.327-0.271v0c0.252-0.024 0.468-0.038 0.646-0.042 0.178-0.01 0.36-0.014 0.546-0.011v0l-0.025-0.266c-0.033-0.341-0.19-0.584-0.473-0.729-0.282-0.145-0.642-0.197-1.078-0.155v0c-0.396 0.038-0.793 0.131-1.192 0.28-0.399 0.148-0.772 0.346-1.12 0.593v0l-0.714-1.088c0.413-0.287 0.861-0.53 1.345-0.728 0.484-0.191 1.003-0.313 1.555-0.366v0c0.362-0.035 0.72-0.028 1.076 0.02 0.356 0.048 0.679 0.152 0.969 0.31 0.297 0.157 0.542 0.375 0.734 0.652 0.192 0.278 0.309 0.635 0.351 1.072v0l0.425 4.43-1.453 0.139-0.093-0.972c-0.197 0.384-0.511 0.696-0.943 0.938-0.431 0.241-0.906 0.386-1.424 0.436v0c-0.321 0.031-0.628 0.016-0.924-0.046-0.295-0.061-0.556-0.167-0.784-0.317-0.222-0.158-0.406-0.36-0.554-0.608-0.154-0.24-0.247-0.53-0.28-0.871zM98.101 178.903v0c0.293-0.028 0.563-0.092 0.808-0.191 0.245-0.099 0.457-0.223 0.636-0.371 0.185-0.149 0.324-0.32 0.415-0.515 0.091-0.195 0.127-0.401 0.106-0.619v0l-0.025-0.256c-0.235-0.012-0.455-0.011-0.661 0.001-0.198 0.012-0.376 0.026-0.533 0.041v0c-0.716 0.069-1.249 0.216-1.599 0.443-0.35 0.226-0.512 0.479-0.485 0.759v0c0.053 0.553 0.499 0.789 1.338 0.708z" fill="#c9ad8b" data-fill-palette-color="accent"></path><path d="M109.629 175.805l1.326 0.02c0.067 0.7-0.089 1.299-0.469 1.797-0.373 0.497-0.909 0.817-1.607 0.961v0c-0.376 0.078-0.738 0.086-1.086 0.025-0.34-0.056-0.645-0.175-0.913-0.358-0.267-0.176-0.497-0.408-0.69-0.697-0.184-0.284-0.315-0.614-0.393-0.989v0l-0.579-2.809-1.47 0.303-0.27-1.308 1.47-0.304-0.536-2.597 1.45-0.299 0.535 2.597 2.718-0.56 0.27 1.308-2.718 0.561 0.58 2.809c0.086 0.416 0.251 0.707 0.495 0.874 0.243 0.16 0.532 0.205 0.867 0.135v0c0.409-0.084 0.691-0.265 0.844-0.541 0.153-0.276 0.211-0.586 0.176-0.928z" fill="#c9ad8b" data-fill-palette-color="accent"></path><path d="M113.325 175.418v0c-0.116-0.366-0.117-0.721-0.004-1.066 0.107-0.343 0.295-0.658 0.564-0.944 0.262-0.284 0.587-0.542 0.974-0.772 0.389-0.224 0.803-0.405 1.24-0.544v0c0.242-0.077 0.45-0.135 0.624-0.176 0.172-0.047 0.349-0.089 0.532-0.125v0l-0.081-0.255c-0.103-0.327-0.308-0.531-0.615-0.614-0.306-0.083-0.669-0.058-1.087 0.075v0c-0.379 0.12-0.748 0.294-1.107 0.523-0.359 0.229-0.683 0.5-0.971 0.814v0l-0.925-0.914c0.344-0.368 0.731-0.699 1.162-0.994 0.433-0.288 0.915-0.516 1.444-0.683v0c0.346-0.11 0.698-0.178 1.056-0.206 0.358-0.027 0.696 0.006 1.013 0.1 0.324 0.092 0.608 0.253 0.854 0.485 0.246 0.231 0.435 0.556 0.567 0.974v0l1.344 4.243-1.392 0.44-0.294-0.931c-0.112 0.417-0.354 0.788-0.726 1.114-0.371 0.326-0.805 0.568-1.301 0.725v0c-0.307 0.097-0.611 0.147-0.913 0.149-0.301 0.002-0.579-0.047-0.833-0.146-0.25-0.108-0.473-0.267-0.669-0.478-0.201-0.202-0.353-0.467-0.456-0.794zM116.151 175.321v0c0.281-0.089 0.531-0.208 0.75-0.356 0.219-0.148 0.4-0.314 0.544-0.496 0.15-0.184 0.25-0.381 0.298-0.59 0.049-0.209 0.04-0.419-0.026-0.628v0l-0.078-0.245c-0.232 0.038-0.448 0.084-0.645 0.14-0.192 0.053-0.362 0.104-0.513 0.151v0c-0.686 0.217-1.176 0.473-1.471 0.768-0.295 0.295-0.4 0.576-0.315 0.844v0c0.168 0.529 0.653 0.667 1.456 0.412z" fill="#c9ad8b" data-fill-palette-color="accent"></path><path d="M135.475 166.524l0.644 1.159-3.9 2.165-0.644-1.159 1.285-0.713-3.218-5.797-1.285 0.714-0.649-1.168 3.9-2.166 0.649 1.168-1.33 0.739 3.218 5.796z" fill="#c9ad8b" data-fill-palette-color="accent"></path><path d="M142.048 158.627l2.379 3.328-1.204 0.861-2.379-3.328c-0.303-0.424-0.59-0.66-0.862-0.71-0.277-0.046-0.566 0.039-0.868 0.254v0c-0.44 0.315-0.672 0.75-0.696 1.306-0.025 0.566 0.187 1.163 0.638 1.793v0l1.734 2.425-1.196 0.855-3.862-5.401 1.196-0.855 0.974 1.362c-0.212-0.556-0.25-1.08-0.114-1.573 0.136-0.493 0.441-0.909 0.915-1.248v0c0.552-0.395 1.113-0.522 1.684-0.383 0.573 0.13 1.126 0.568 1.661 1.314z" fill="#c9ad8b" data-fill-palette-color="accent"></path><path d="M150.3 154.246v0c0.288 0.322 0.449 0.646 0.484 0.973 0.035 0.337-0.006 0.667-0.12 0.991-0.12 0.328-0.298 0.643-0.534 0.945-0.24 0.297-0.495 0.567-0.765 0.81v0c-0.449 0.402-0.956 0.735-1.519 1-0.559 0.27-1.097 0.444-1.616 0.521v0l-0.349-1.315c0.594-0.117 1.093-0.274 1.497-0.47 0.409-0.2 0.775-0.445 1.096-0.732v0c0.444-0.397 0.725-0.731 0.842-1.002 0.122-0.275 0.108-0.496-0.043-0.665v0c-0.073-0.082-0.161-0.123-0.263-0.123-0.106-0.006-0.244 0.03-0.413 0.108-0.174 0.073-0.386 0.18-0.637 0.321-0.251 0.151-0.56 0.345-0.928 0.582v0c-0.292 0.188-0.578 0.351-0.857 0.49-0.285 0.144-0.566 0.235-0.845 0.274-0.274 0.043-0.54 0.023-0.797-0.059-0.263-0.078-0.51-0.247-0.744-0.508v0c-0.238-0.266-0.374-0.557-0.41-0.874-0.04-0.323-0.008-0.646 0.098-0.97 0.105-0.324 0.271-0.638 0.496-0.941 0.226-0.303 0.476-0.578 0.752-0.824v0c0.388-0.347 0.812-0.634 1.271-0.861 0.459-0.227 0.909-0.372 1.349-0.434v0l0.324 1.241c-0.431 0.073-0.804 0.195-1.119 0.367-0.315 0.172-0.629 0.397-0.941 0.675v0c-0.128 0.114-0.256 0.243-0.385 0.387-0.129 0.143-0.234 0.288-0.315 0.433-0.086 0.15-0.138 0.293-0.155 0.428-0.018 0.145 0.017 0.265 0.103 0.363v0c0.119 0.133 0.33 0.137 0.633 0.013 0.308-0.128 0.777-0.401 1.407-0.817v0c0.343-0.233 0.669-0.429 0.979-0.586 0.31-0.157 0.604-0.26 0.883-0.307 0.284-0.052 0.553-0.035 0.805 0.052 0.257 0.082 0.503 0.254 0.736 0.514z" fill="#c9ad8b" data-fill-palette-color="accent"></path><path d="M149.697 144.312l1.319 1.223-1.223 1.319-1.319-1.223zM156.461 148.733l0.973 0.901-3.033 3.272-0.972-0.902 0.999-1.078-2.917-2.704-1 1.078-0.98-0.908 1.999-2.156 3.897 3.612z" fill="#c9ad8b" data-fill-palette-color="accent"></path><path d="M158.179 137.671l5.302 3.877c0.371 0.271 0.653 0.575 0.848 0.912 0.189 0.333 0.3 0.686 0.334 1.059 0.029 0.378-0.012 0.759-0.124 1.145-0.121 0.387-0.322 0.771-0.601 1.152v0c-0.679 0.929-1.542 1.517-2.587 1.763v0l-0.509-1.238c0.871-0.204 1.549-0.638 2.034-1.301v0c0.299-0.409 0.442-0.814 0.429-1.214-0.023-0.399-0.247-0.754-0.673-1.065v0l-0.572-0.419c0.032 0.397 0.015 0.745-0.051 1.045-0.066 0.3-0.209 0.599-0.427 0.898v0c-0.251 0.343-0.557 0.611-0.919 0.804-0.358 0.188-0.741 0.294-1.15 0.319-0.407 0.034-0.82-0.01-1.241-0.131-0.417-0.126-0.813-0.327-1.19-0.602v0c-0.376-0.275-0.69-0.594-0.943-0.957-0.243-0.364-0.41-0.745-0.501-1.143-0.095-0.392-0.108-0.787-0.037-1.186 0.075-0.404 0.237-0.777 0.488-1.12v0c0.218-0.299 0.465-0.526 0.74-0.682 0.273-0.165 0.595-0.286 0.966-0.363v0l-0.49-0.358zM161.114 141.651l-2.381-1.741c-0.256 0.025-0.508 0.121-0.758 0.286-0.245 0.161-0.446 0.349-0.603 0.565v0c-0.328 0.448-0.435 0.926-0.322 1.433 0.113 0.507 0.413 0.939 0.9 1.294v0c0.238 0.174 0.485 0.3 0.742 0.378 0.261 0.072 0.515 0.097 0.762 0.072 0.246-0.024 0.481-0.094 0.703-0.212 0.226-0.123 0.418-0.293 0.575-0.508v0c0.158-0.216 0.273-0.467 0.347-0.753 0.077-0.292 0.089-0.563 0.035-0.814z" fill="#c9ad8b" data-fill-palette-color="accent"></path><path d="M164.841 131.546l3.534 2.061-0.746 1.278-3.534-2.061c-0.45-0.262-0.809-0.361-1.077-0.295-0.272 0.072-0.501 0.267-0.687 0.587v0c-0.273 0.468-0.306 0.96-0.1 1.477 0.209 0.526 0.647 0.985 1.316 1.374v0l2.575 1.502-0.74 1.27-8.027-4.682 0.741-1.27 3.738 2.181c-0.421-0.42-0.671-0.883-0.749-1.389-0.078-0.506 0.03-1.01 0.323-1.513v0c0.342-0.586 0.802-0.933 1.38-1.04 0.576-0.116 1.26 0.057 2.053 0.52z" fill="#c9ad8b" data-fill-palette-color="accent"></path><path d="M169.76 124.953l0.789-1.067c0.608 0.353 1.004 0.829 1.188 1.428 0.186 0.593 0.135 1.215-0.155 1.866v0c-0.156 0.351-0.36 0.65-0.612 0.897-0.244 0.244-0.518 0.422-0.823 0.535-0.298 0.115-0.621 0.166-0.968 0.154-0.338-0.015-0.683-0.101-1.034-0.257v0l-2.62-1.164-0.61 1.371-1.221-0.543 0.61-1.371-2.424-1.077 0.602-1.353 2.423 1.077 1.127-2.536 1.221 0.543-1.127 2.536 2.621 1.165c0.388 0.173 0.721 0.208 0.998 0.106 0.271-0.104 0.477-0.313 0.616-0.626v0c0.17-0.382 0.187-0.716 0.051-1.001-0.136-0.285-0.353-0.513-0.652-0.683z" fill="#c9ad8b" data-fill-palette-color="accent"></path><path d="M173.533 115.53v0c0.411 0.133 0.713 0.332 0.908 0.597 0.199 0.274 0.331 0.579 0.394 0.917 0.061 0.344 0.066 0.706 0.015 1.086-0.058 0.378-0.143 0.739-0.254 1.084v0c-0.186 0.574-0.456 1.116-0.81 1.628-0.347 0.514-0.725 0.935-1.134 1.264v0l-0.963-0.961c0.454-0.4 0.806-0.787 1.057-1.159 0.253-0.379 0.446-0.774 0.579-1.185v0c0.184-0.567 0.259-0.997 0.223-1.289-0.033-0.299-0.157-0.483-0.371-0.552v0c-0.104-0.034-0.201-0.025-0.289 0.025-0.095 0.048-0.196 0.149-0.304 0.301-0.114 0.15-0.243 0.35-0.388 0.598-0.141 0.257-0.311 0.58-0.509 0.969v0c-0.158 0.309-0.322 0.594-0.494 0.856-0.173 0.268-0.371 0.488-0.593 0.661-0.215 0.175-0.455 0.292-0.719 0.351-0.266 0.065-0.565 0.043-0.897-0.065v0c-0.339-0.11-0.604-0.293-0.795-0.549-0.197-0.258-0.332-0.554-0.403-0.888-0.072-0.333-0.087-0.687-0.044-1.062 0.043-0.375 0.121-0.739 0.235-1.091v0c0.161-0.495 0.382-0.957 0.665-1.384 0.283-0.427 0.598-0.778 0.947-1.054v0l0.904 0.91c-0.336 0.28-0.597 0.574-0.782 0.88-0.186 0.307-0.344 0.659-0.473 1.057v0c-0.053 0.163-0.099 0.339-0.139 0.528-0.04 0.189-0.058 0.367-0.054 0.533 0.001 0.173 0.029 0.323 0.081 0.448 0.057 0.134 0.148 0.221 0.272 0.261v0c0.169 0.055 0.354-0.047 0.554-0.306 0.202-0.266 0.47-0.737 0.804-1.414v0c0.179-0.374 0.363-0.707 0.551-0.999 0.188-0.292 0.391-0.529 0.609-0.71 0.22-0.188 0.46-0.308 0.722-0.36 0.264-0.058 0.562-0.034 0.895 0.074z" fill="#c9ad8b" data-fill-palette-color="accent"></path><path d="M1.293 91.53c0-1.994 1.616-3.61 3.61-3.61 1.994 0 3.61 1.616 3.61 3.61 0 1.994-1.616 3.61-3.61 3.61-1.994 0-3.61-1.616-3.61-3.61z" fill="#c9ad8b" data-fill-palette-color="accent"></path><path d="M171.89 91.53c0-1.994 1.616-3.61 3.61-3.61 1.994 0 3.61 1.616 3.61 3.61 0 1.994-1.616 3.61-3.61 3.61-1.994 0-3.61-1.616-3.61-3.61z" fill="#c9ad8b" data-fill-palette-color="accent"></path></g><g id="text-1"></g></svg></g></svg></g><g></g></svg></g><defs></defs></svg><rect width="395.52" height="244.37211029586516" fill="none" stroke="none" visibility="hidden"></rect></g></svg></g></svg>